<svg width="20" height="21" viewBox="0 0 20 21" fill="none" xmlns="http://www.w3.org/2000/svg">
<mask id="mask0_9250_118401" style="mask-type:alpha" maskUnits="userSpaceOnUse" x="0" y="0" width="20" height="21">
<rect y="0.5" width="20" height="20" fill="#D9D9D9"/>
</mask>
<g mask="url(#mask0_9250_118401)">
<path d="M4.16406 16.3337V4.66699V8.27595V7.84012V16.3337ZM6.03906 11.1253H10.4349C10.4574 10.8999 10.5068 10.683 10.5832 10.4747C10.6595 10.2664 10.7543 10.0666 10.8676 9.87533H6.03906V11.1253ZM6.03906 14.4587H9.12552C9.31358 14.2449 9.52302 14.0646 9.75385 13.9178C9.98455 13.7709 10.2265 13.6499 10.4797 13.5549C10.4455 13.5035 10.4156 13.448 10.3899 13.3882C10.3643 13.3284 10.343 13.2685 10.3259 13.2087H6.03906V14.4587ZM6.03906 7.79199H13.9557V6.54199H6.03906V7.79199ZM4.42052 17.5837C3.99955 17.5837 3.64323 17.4378 3.35156 17.1462C3.0599 16.8545 2.91406 16.4982 2.91406 16.0772V4.92345C2.91406 4.50248 3.0599 4.14616 3.35156 3.85449C3.64323 3.56283 3.99955 3.41699 4.42052 3.41699H15.5743C15.9952 3.41699 16.3516 3.56283 16.6432 3.85449C16.9349 4.14616 17.0807 4.50248 17.0807 4.92345V9.44908C16.9236 9.19477 16.7423 8.97012 16.5366 8.77512C16.331 8.58012 16.0957 8.41373 15.8307 8.27595V4.92345C15.8307 4.85928 15.804 4.80053 15.7505 4.7472C15.6972 4.69373 15.6384 4.66699 15.5743 4.66699H4.42052C4.35635 4.66699 4.2976 4.69373 4.24427 4.7472C4.1908 4.80053 4.16406 4.85928 4.16406 4.92345V16.0772C4.16406 16.1414 4.1908 16.2001 4.24427 16.2535C4.2976 16.3069 4.35635 16.3337 4.42052 16.3337H8.35635C8.34788 16.3849 8.34149 16.4362 8.33719 16.4874C8.33288 16.5388 8.33073 16.5901 8.33073 16.6414V17.5837H4.42052ZM14.1159 13.417C13.5968 13.417 13.1545 13.2343 12.7891 12.8689C12.4236 12.5035 12.2409 12.0612 12.2409 11.542C12.2409 11.0227 12.4236 10.5804 12.7891 10.2151C13.1545 9.8497 13.5968 9.66699 14.1159 9.66699C14.6352 9.66699 15.0775 9.8497 15.4428 10.2151C15.8082 10.5804 15.9909 11.0227 15.9909 11.542C15.9909 12.0612 15.8082 12.5035 15.4428 12.8689C15.0775 13.2343 14.6352 13.417 14.1159 13.417ZM10.1576 17.5837V16.6253C10.1576 16.3294 10.2337 16.0577 10.3859 15.8103C10.5383 15.5631 10.7528 15.385 11.0295 15.276C11.5134 15.073 12.0147 14.9208 12.5334 14.8193C13.0522 14.7178 13.5797 14.667 14.1159 14.667C14.6416 14.667 15.1638 14.7178 15.6824 14.8193C16.2011 14.9208 16.7079 15.073 17.2026 15.276C17.4793 15.385 17.6937 15.5631 17.8459 15.8103C17.9982 16.0577 18.0743 16.3294 18.0743 16.6253V17.5837H10.1576Z" fill="#757575"/>
</g>
</svg>
