<svg width="20" height="21" viewBox="0 0 20 21" fill="none" xmlns="http://www.w3.org/2000/svg">
<mask id="mask0_9250_118396" style="mask-type:alpha" maskUnits="userSpaceOnUse" x="0" y="0" width="20" height="21">
<rect y="0.5" width="20" height="20" fill="#D9D9D9"/>
</mask>
<g mask="url(#mask0_9250_118396)">
<path d="M4.16406 7.83981H15.8307V5.75647C15.8307 5.6923 15.804 5.63355 15.7505 5.58022C15.6972 5.52675 15.6384 5.50001 15.5743 5.50001H4.42052C4.35635 5.50001 4.2976 5.52675 4.24427 5.58022C4.1908 5.63355 4.16406 5.6923 4.16406 5.75647V7.83981ZM4.42052 18.4167C3.99955 18.4167 3.64323 18.2708 3.35156 17.9792C3.0599 17.6875 2.91406 17.3312 2.91406 16.9102V5.75647C2.91406 5.3355 3.0599 4.97918 3.35156 4.68751C3.64323 4.39585 3.99955 4.25001 4.42052 4.25001H5.57427V2.4873H6.85635V4.25001H13.1705V2.4873H14.4205V4.25001H15.5743C15.9952 4.25001 16.3516 4.39585 16.6432 4.68751C16.9349 4.97918 17.0807 5.3355 17.0807 5.75647V10.3094C16.8809 10.2218 16.6768 10.1509 16.4684 10.0969C16.2601 10.043 16.0475 10.0006 15.8307 9.9696V9.08981H4.16406V16.9102C4.16406 16.9744 4.1908 17.0331 4.24427 17.0865C4.2976 17.1399 4.35635 17.1667 4.42052 17.1667H9.83886C9.90927 17.3974 9.99448 17.6156 10.0945 17.8213C10.1943 18.027 10.3078 18.2254 10.4349 18.4167H4.42052ZM15.1576 19.25C14.1171 19.25 13.2319 18.8852 12.5022 18.1554C11.7725 17.4257 11.4076 16.5406 11.4076 15.5C11.4076 14.4595 11.7725 13.5743 12.5022 12.8446C13.2319 12.1149 14.1171 11.75 15.1576 11.75C16.1983 11.75 17.0834 12.1149 17.813 12.8446C18.5427 13.5743 18.9076 14.4595 18.9076 15.5C18.9076 16.5406 18.5427 17.4257 17.813 18.1554C17.0834 18.8852 16.1983 19.25 15.1576 19.25ZM16.5455 17.4071L17.0647 16.8879L15.5264 15.3494V13.0481H14.7891V15.6506L16.5455 17.4071Z" fill="#757575"/>
</g>
</svg>
