<svg width="135" height="34" viewBox="0 0 135 34" fill="none" xmlns="http://www.w3.org/2000/svg">
<path d="M16.3027 24.5H6.22656C5.96875 24.5 5.68945 24.4714 5.38867 24.4141C5.09505 24.3496 4.80143 24.2529 4.50781 24.124C4.22135 23.9951 3.94564 23.8304 3.68066 23.6299C3.41569 23.4222 3.17936 23.1751 2.97168 22.8887C2.77116 22.5951 2.61003 22.2585 2.48828 21.8789C2.36654 21.4922 2.30566 21.0589 2.30566 20.5791V13.0166C2.30566 12.7588 2.33431 12.4831 2.3916 12.1895C2.45605 11.8887 2.55273 11.5951 2.68164 11.3086C2.81055 11.015 2.97884 10.7357 3.18652 10.4707C3.39421 10.2057 3.64128 9.97298 3.92773 9.77246C4.22135 9.56478 4.55794 9.40007 4.9375 9.27832C5.31706 9.15658 5.74674 9.0957 6.22656 9.0957H16.3027V11.8887H6.22656C5.86133 11.8887 5.58203 11.9854 5.38867 12.1787C5.19531 12.3721 5.09863 12.6585 5.09863 13.0381V20.5791C5.09863 20.9372 5.19531 21.2165 5.38867 21.417C5.58919 21.6104 5.86849 21.707 6.22656 21.707H16.3027V24.5ZM34.876 18.2695C34.876 19.2077 34.7148 20.0706 34.3926 20.8584C34.0703 21.6462 33.6227 22.3265 33.0498 22.8994C32.4769 23.4723 31.7965 23.9199 31.0088 24.2422C30.2282 24.5573 29.376 24.7148 28.4521 24.7148H24.6709C23.7471 24.7148 22.8913 24.5573 22.1035 24.2422C21.3158 23.9199 20.6354 23.4723 20.0625 22.8994C19.4896 22.3265 19.0384 21.6462 18.709 20.8584C18.3867 20.0706 18.2256 19.2077 18.2256 18.2695V15.3262C18.2256 14.3952 18.3867 13.5358 18.709 12.748C19.0384 11.9531 19.4896 11.2728 20.0625 10.707C20.6354 10.1341 21.3158 9.68652 22.1035 9.36426C22.8913 9.04199 23.7471 8.88086 24.6709 8.88086H28.4521C29.376 8.88086 30.2282 9.04199 31.0088 9.36426C31.7965 9.68652 32.4769 10.1341 33.0498 10.707C33.6227 11.2728 34.0703 11.9531 34.3926 12.748C34.7148 13.5358 34.876 14.3952 34.876 15.3262V18.2695ZM32.083 15.3262C32.083 14.7747 31.9935 14.277 31.8145 13.833C31.6426 13.3818 31.3955 12.9987 31.0732 12.6836C30.7581 12.3613 30.375 12.1143 29.9238 11.9424C29.4798 11.7633 28.9893 11.6738 28.4521 11.6738H24.6709C24.1266 11.6738 23.6289 11.7633 23.1777 11.9424C22.7337 12.1143 22.3506 12.3613 22.0283 12.6836C21.7061 12.9987 21.4554 13.3818 21.2764 13.833C21.1045 14.277 21.0186 14.7747 21.0186 15.3262V18.2695C21.0186 18.821 21.1045 19.3223 21.2764 19.7734C21.4554 20.2174 21.7061 20.6006 22.0283 20.9229C22.3506 21.238 22.7337 21.485 23.1777 21.6641C23.6289 21.8359 24.1266 21.9219 24.6709 21.9219H28.4307C28.9749 21.9219 29.4691 21.8359 29.9131 21.6641C30.3643 21.485 30.751 21.238 31.0732 20.9229C31.3955 20.6006 31.6426 20.2174 31.8145 19.7734C31.9935 19.3223 32.083 18.821 32.083 18.2695V15.3262ZM53.0303 23.3076C53.0303 23.5081 52.9909 23.6943 52.9121 23.8662C52.8405 24.0381 52.7402 24.1885 52.6113 24.3174C52.4896 24.4391 52.3428 24.5358 52.1709 24.6074C51.999 24.679 51.8164 24.7148 51.623 24.7148C51.4512 24.7148 51.2757 24.6826 51.0967 24.6182C50.9248 24.5537 50.7708 24.4499 50.6348 24.3066L40.4297 13.6504V24.5H37.6367V10.2881C37.6367 10.0016 37.7155 9.74382 37.873 9.51465C38.0378 9.27832 38.2454 9.10286 38.4961 8.98828C38.7611 8.88086 39.0332 8.85579 39.3125 8.91309C39.5918 8.96322 39.8317 9.09212 40.0322 9.2998L50.2373 19.9453V9.0957H53.0303V23.3076ZM71.6787 23.3076C71.6787 23.5081 71.6393 23.6943 71.5605 23.8662C71.4889 24.0381 71.3887 24.1885 71.2598 24.3174C71.138 24.4391 70.9912 24.5358 70.8193 24.6074C70.6475 24.679 70.4648 24.7148 70.2715 24.7148C70.0996 24.7148 69.9242 24.6826 69.7451 24.6182C69.5732 24.5537 69.4193 24.4499 69.2832 24.3066L59.0781 13.6504V24.5H56.2852V10.2881C56.2852 10.0016 56.3639 9.74382 56.5215 9.51465C56.6862 9.27832 56.8939 9.10286 57.1445 8.98828C57.4095 8.88086 57.6816 8.85579 57.9609 8.91309C58.2402 8.96322 58.4801 9.09212 58.6807 9.2998L68.8857 19.9453V9.0957H71.6787V23.3076ZM87.5986 18.2051H78.7793V15.3906H87.5986V18.2051ZM88.8555 24.5H78.7793C78.3926 24.5 77.9701 24.432 77.5117 24.2959C77.0534 24.1598 76.6273 23.9378 76.2334 23.6299C75.8467 23.3148 75.5208 22.9102 75.2559 22.416C74.998 21.9147 74.8691 21.3024 74.8691 20.5791V10.5029C74.8691 10.3096 74.9049 10.127 74.9766 9.95508C75.0482 9.7832 75.1449 9.63281 75.2666 9.50391C75.3955 9.375 75.5459 9.27474 75.7178 9.20312C75.8896 9.13151 76.0758 9.0957 76.2764 9.0957H88.8555V11.8887H77.6621V20.5791C77.6621 20.9443 77.7588 21.2236 77.9521 21.417C78.1455 21.6104 78.4284 21.707 78.8008 21.707H88.8555V24.5ZM105.248 24.5H95.1719C94.9141 24.5 94.6348 24.4714 94.334 24.4141C94.0404 24.3496 93.7467 24.2529 93.4531 24.124C93.1667 23.9951 92.891 23.8304 92.626 23.6299C92.361 23.4222 92.1247 23.1751 91.917 22.8887C91.7165 22.5951 91.5553 22.2585 91.4336 21.8789C91.3118 21.4922 91.251 21.0589 91.251 20.5791V13.0166C91.251 12.7588 91.2796 12.4831 91.3369 12.1895C91.4014 11.8887 91.498 11.5951 91.627 11.3086C91.7559 11.015 91.9242 10.7357 92.1318 10.4707C92.3395 10.2057 92.5866 9.97298 92.873 9.77246C93.1667 9.56478 93.5033 9.40007 93.8828 9.27832C94.2624 9.15658 94.6921 9.0957 95.1719 9.0957H105.248V11.8887H95.1719C94.8066 11.8887 94.5273 11.9854 94.334 12.1787C94.1406 12.3721 94.0439 12.6585 94.0439 13.0381V20.5791C94.0439 20.9372 94.1406 21.2165 94.334 21.417C94.5345 21.6104 94.8138 21.707 95.1719 21.707H105.248V24.5ZM121.812 11.8887H115.657V24.5H112.864V11.8887H106.698V9.0957H121.812V11.8887ZM133.221 18.0547H129.439V21.8359H126.937V18.0547H123.145V15.541H126.937V11.7598H129.439V15.541H133.221V18.0547Z" fill="#FBBC05"/>
</svg>
