<svg width="20" height="21" viewBox="0 0 20 21" fill="none" xmlns="http://www.w3.org/2000/svg">
<mask id="mask0_9250_118391" style="mask-type:alpha" maskUnits="userSpaceOnUse" x="0" y="0" width="20" height="21">
<rect y="0.5" width="20" height="20" fill="#D9D9D9"/>
</mask>
<g mask="url(#mask0_9250_118391)">
<path d="M9.83464 17.1711C9.3763 17.1711 8.98394 17.0072 8.65755 16.6793C8.33116 16.3512 8.16797 15.958 8.16797 15.4997C8.16797 15.0413 8.33116 14.649 8.65755 14.3226C8.98394 13.9962 9.3763 13.833 9.83464 13.833L10.3346 13.3538C10.4457 13.2427 10.5742 13.1559 10.7201 13.0934C10.8659 13.0309 11.0152 12.9997 11.168 12.9997C11.4874 12.9997 11.7617 13.1177 11.9909 13.3538C12.2201 13.59 12.3346 13.8677 12.3346 14.1872V14.5413C12.3346 14.8191 12.4249 15.0483 12.6055 15.2288C12.786 15.4094 13.0152 15.4997 13.293 15.4997C13.5013 15.4997 13.6888 15.4372 13.8555 15.3122C14.0221 15.1872 14.1402 15.0275 14.2096 14.833L14.4596 14.1455C14.5846 13.8122 14.7834 13.5379 15.0559 13.3226C15.3282 13.1073 15.645 12.9997 16.0061 12.9997C16.1589 12.6108 16.2804 12.208 16.3707 11.7913C16.461 11.3747 16.5061 10.9441 16.5061 10.4997C16.5061 9.26356 16.1998 8.13773 15.5871 7.12218C14.9744 6.10676 14.168 5.30738 13.168 4.72405V5.49967C13.168 5.95801 13.0048 6.35037 12.6784 6.67676C12.352 7.00315 11.9596 7.16634 11.5013 7.16634H10.668V8.83301C10.668 9.06912 10.5881 9.26704 10.4284 9.42676C10.2687 9.58648 10.0707 9.66634 9.83464 9.66634H9.0013V11.083C9.0013 11.3886 8.89714 11.6455 8.6888 11.8538C8.48047 12.0622 8.22353 12.1663 7.91797 12.1663C7.72353 12.1663 7.54644 12.1247 7.38672 12.0413C7.227 11.958 7.09853 11.84 7.0013 11.6872L5.66797 9.66634H4.83464V10.4997C4.83464 10.9302 4.6913 11.2983 4.40464 11.6038C4.11797 11.9094 3.77359 12.09 3.37151 12.1455C3.73262 13.59 4.51116 14.7887 5.70714 15.7418C6.90325 16.6947 8.27908 17.1711 9.83464 17.1711ZM11.5013 12.1663C11.2652 12.1663 11.0673 12.0865 10.9076 11.9268C10.7478 11.767 10.668 11.5691 10.668 11.333C10.668 11.0969 10.7478 10.899 10.9076 10.7393C11.0673 10.5795 11.2652 10.4997 11.5013 10.4997H12.3346C12.5707 10.4997 12.7687 10.5795 12.9284 10.7393C13.0881 10.899 13.168 11.0969 13.168 11.333C13.168 11.5691 13.0881 11.767 12.9284 11.9268C12.7687 12.0865 12.5707 12.1663 12.3346 12.1663H11.5013ZM13.4388 9.66634C13.161 9.66634 12.9423 9.5587 12.7826 9.34343C12.6228 9.12815 12.5846 8.88856 12.668 8.62468L12.9805 7.70801C13.036 7.54134 13.1332 7.4094 13.2721 7.31218C13.411 7.21495 13.5638 7.16634 13.7305 7.16634C14.0082 7.16634 14.227 7.27398 14.3867 7.48926C14.5464 7.70454 14.5846 7.94412 14.5013 8.20801L14.1888 9.12468C14.1332 9.29134 14.036 9.42329 13.8971 9.52051C13.7582 9.61773 13.6055 9.66634 13.4388 9.66634ZM9.83609 18.4163C8.74109 18.4163 7.71186 18.2086 6.74839 17.793C5.78491 17.3775 4.94686 16.8135 4.23422 16.1011C3.52158 15.3888 2.95734 14.5511 2.54151 13.588C2.12582 12.625 1.91797 11.596 1.91797 10.5011C1.91797 9.40613 2.12575 8.3769 2.5413 7.41342C2.95686 6.44995 3.52082 5.6119 4.23318 4.89926C4.94554 4.18662 5.78325 3.62238 6.7463 3.20655C7.70936 2.79085 8.73832 2.58301 9.83318 2.58301C10.9282 2.58301 11.9574 2.79079 12.9209 3.20634C13.8844 3.6219 14.7224 4.18586 15.4351 4.89822C16.1477 5.61058 16.7119 6.44829 17.1278 7.41134C17.5435 8.3744 17.7513 9.40336 17.7513 10.4982C17.7513 11.5932 17.5435 12.6225 17.128 13.5859C16.7124 14.5494 16.1485 15.3875 15.4361 16.1001C14.7237 16.8127 13.886 17.377 12.923 17.7928C11.9599 18.2085 10.931 18.4163 9.83609 18.4163Z" fill="#757575"/>
</g>
</svg>
