<svg width="20" height="20" viewBox="0 0 20 20" fill="none" xmlns="http://www.w3.org/2000/svg">
<g mask="url(#mask0_9496_9251)">
<path d="M4.42394 17.0833C4.00838 17.0833 3.65338 16.9362 3.35894 16.6419C3.06463 16.3474 2.91748 15.9924 2.91748 15.5769V4.42313C2.91748 4.00757 3.06463 3.65257 3.35894 3.35813C3.65338 3.06382 4.00838 2.91667 4.42394 2.91667H8.13227C8.18463 2.45403 8.38658 2.06062 8.73811 1.73646C9.08949 1.41215 9.5104 1.25 10.0008 1.25C10.4965 1.25 10.9201 1.41215 11.2716 1.73646C11.6232 2.06062 11.8224 2.45403 11.8694 2.91667H15.5777C15.9932 2.91667 16.3482 3.06382 16.6427 3.35813C16.937 3.65257 17.0841 4.00757 17.0841 4.42313V15.5769C17.0841 15.9924 16.937 16.3474 16.6427 16.6419C16.3482 16.9362 15.9932 17.0833 15.5777 17.0833H4.42394ZM4.42394 15.8333H15.5777C15.6419 15.8333 15.7006 15.8066 15.7539 15.7531C15.8074 15.6998 15.8341 15.641 15.8341 15.5769V4.42313C15.8341 4.35896 15.8074 4.30021 15.7539 4.24687C15.7006 4.1934 15.6419 4.16667 15.5777 4.16667H4.42394C4.35977 4.16667 4.30102 4.1934 4.24769 4.24687C4.19422 4.30021 4.16748 4.35896 4.16748 4.42313V15.5769C4.16748 15.641 4.19422 15.6998 4.24769 15.7531C4.30102 15.8066 4.35977 15.8333 4.42394 15.8333ZM6.04248 13.8621H11.4591V12.6123H6.04248V13.8621ZM6.04248 10.625H13.9591V9.375H6.04248V10.625ZM6.04248 7.38771H13.9591V6.13792H6.04248V7.38771ZM10.0008 3.62187C10.1814 3.62187 10.3307 3.56285 10.4487 3.44479C10.5668 3.32674 10.6258 3.17743 10.6258 2.99687C10.6258 2.81632 10.5668 2.66701 10.4487 2.54896C10.3307 2.4309 10.1814 2.37187 10.0008 2.37187C9.82026 2.37187 9.67095 2.4309 9.5529 2.54896C9.43484 2.66701 9.37581 2.81632 9.37581 2.99687C9.37581 3.17743 9.43484 3.32674 9.5529 3.44479C9.67095 3.56285 9.82026 3.62187 10.0008 3.62187Z" fill="#757575"/>
</g>
</svg>
