<svg width="24" height="24" viewBox="0 0 24 24" fill="none" xmlns="http://www.w3.org/2000/svg">
<mask id="mask0_9414_75759" style="mask-type:alpha" maskUnits="userSpaceOnUse" x="0" y="0" width="24" height="24">
<rect width="24" height="24" fill="#D9D9D9"/>
</mask>
<g mask="url(#mask0_9414_75759)">
<path d="M12.0005 20C12.889 20 13.7458 19.8596 14.5708 19.5787C15.3958 19.2981 16.1531 18.8872 16.8428 18.3462C16.1403 17.8244 15.3797 17.4279 14.561 17.1567C13.7423 16.8856 12.8888 16.75 12.0002 16.75C11.1119 16.75 10.2552 16.8823 9.43025 17.147C8.60525 17.4118 7.84792 17.8115 7.15825 18.3462C7.84792 18.8872 8.60525 19.2981 9.43025 19.5787C10.2552 19.8596 11.112 20 12.0005 20ZM14.4583 11.6365L13.389 10.5672C13.5043 10.4147 13.5934 10.2453 13.6562 10.059C13.7191 9.87263 13.7505 9.6863 13.7505 9.49997C13.7505 9.01913 13.579 8.6073 13.236 8.26447C12.8932 7.92147 12.4813 7.74997 12.0005 7.74997C11.8142 7.74997 11.6278 7.78138 11.4415 7.84422C11.2552 7.90705 11.0857 7.99613 10.9332 8.11147L9.864 7.04222C10.1587 6.77822 10.4883 6.58013 10.853 6.44797C11.2175 6.31597 11.6014 6.24997 12.0048 6.24997C12.9044 6.24997 13.6703 6.56597 14.3025 7.19797C14.9345 7.83013 15.2505 8.59605 15.2505 9.49572C15.2505 9.89905 15.1845 10.283 15.0525 10.6475C14.9203 11.0121 14.7223 11.3418 14.4583 11.6365ZM19.985 17.1635L18.891 16.0692C19.2577 15.446 19.5343 14.7928 19.7208 14.1095C19.9073 13.4261 20.0005 12.723 20.0005 12C20.0005 9.76663 19.2255 7.87497 17.6755 6.32497C16.1255 4.77497 14.2338 3.99997 12.0005 3.99997C11.2775 3.99997 10.5743 4.09322 9.891 4.27972C9.20767 4.46622 8.55442 4.7428 7.93125 5.10947L6.837 4.01547C7.60883 3.52047 8.432 3.14413 9.3065 2.88647C10.1812 2.6288 11.0792 2.49997 12.0005 2.49997C13.3147 2.49997 14.5497 2.74938 15.7055 3.24822C16.8613 3.74688 17.8668 4.42372 18.7218 5.27872C19.5767 6.13372 20.2536 7.13913 20.7523 8.29497C21.2511 9.4508 21.5005 10.6858 21.5005 12C21.5005 12.9213 21.3717 13.8193 21.114 14.694C20.8563 15.5685 20.48 16.3916 19.985 17.1635ZM11.9967 21.5C10.6841 21.5 9.45042 21.2503 8.29575 20.751C7.14125 20.2516 6.13625 19.5746 5.28075 18.7197C4.42525 17.8649 3.748 16.8597 3.249 15.7042C2.75 14.5486 2.5005 13.3138 2.5005 12C2.5005 10.9975 2.65083 10.0231 2.9515 9.07697C3.25217 8.1308 3.698 7.25063 4.289 6.43647L1.28125 3.40372L2.3505 2.33472L21.862 21.8462L20.7928 22.9152L5.389 7.53647C4.9325 8.19797 4.587 8.90563 4.3525 9.65947C4.11783 10.4133 4.0005 11.1935 4.0005 12C4.0005 12.9908 4.17325 13.9382 4.51875 14.8422C4.86425 15.746 5.36583 16.5627 6.0235 17.2922C6.90433 16.6474 7.84992 16.1458 8.86025 15.7875C9.87058 15.4291 10.9173 15.25 12.0005 15.25C12.762 15.25 13.5123 15.3519 14.2515 15.5557C14.9907 15.7596 15.6987 16.0359 16.3755 16.3847L18.7198 18.7287C17.8211 19.6339 16.7923 20.3221 15.6333 20.7932C14.4742 21.2644 13.2621 21.5 11.9967 21.5Z" fill="#FF1E43"/>
</g>
</svg>
