<svg width="20" height="20" viewBox="0 0 20 20" fill="none" xmlns="http://www.w3.org/2000/svg">
<mask id="mask0_11051_17363" style="mask-type:alpha" maskUnits="userSpaceOnUse" x="0" y="0" width="20" height="20">
<rect width="20" height="20" fill="#D9D9D9"/>
</mask>
<g mask="url(#mask0_11051_17363)">
<path d="M7.46792 18.3829C6.82903 18.3829 6.26278 18.2029 5.76917 17.8429C5.27569 17.4829 4.9141 17.0059 4.68438 16.4118C4.48882 16.6981 4.2316 16.9184 3.91271 17.0729C3.59382 17.2272 3.26181 17.3043 2.91667 17.3043C2.2725 17.3043 1.72951 17.0815 1.28771 16.636C0.845903 16.1904 0.625 15.6493 0.625 15.0127C0.625 14.4582 0.811458 13.9561 1.18437 13.5064C1.55715 13.0565 2.02882 12.8129 2.59938 12.7756C2.36215 12.5085 2.17681 12.2067 2.04333 11.8702C1.90972 11.5336 1.84292 11.1811 1.84292 10.8124C1.84292 10.3036 1.97062 9.82641 2.22604 9.38099C2.48132 8.93571 2.83924 8.57099 3.29979 8.28682C3.3534 8.47321 3.42583 8.67259 3.51708 8.88495C3.60833 9.09731 3.70896 9.28363 3.81896 9.44391C3.59243 9.61807 3.41826 9.82655 3.29646 10.0693C3.17465 10.3122 3.11375 10.5669 3.11375 10.8333C3.11375 11.6538 3.43319 12.1718 4.07208 12.387C4.71097 12.6023 5.34187 12.7709 5.96479 12.8927L6.25646 13.391C6.10368 13.8354 5.97569 14.2126 5.8725 14.5224C5.76944 14.8322 5.71792 15.1147 5.71792 15.3702C5.71792 15.8381 5.88667 16.2475 6.22417 16.5985C6.56153 16.9495 6.97347 17.125 7.46 17.125C8.01986 17.125 8.48139 16.8955 8.84458 16.4366C9.20778 15.9777 9.50583 15.4356 9.73875 14.8102C9.97167 14.1846 10.1512 13.5468 10.2773 12.8966C10.4034 12.2465 10.5065 11.7318 10.5867 11.3524L11.8108 11.6858C11.6912 12.2734 11.5465 12.9513 11.3767 13.7195C11.2068 14.4877 10.9667 15.2177 10.6563 15.9093C10.3458 16.6011 9.93743 17.1863 9.43104 17.6649C8.92465 18.1436 8.27028 18.3829 7.46792 18.3829ZM2.91667 16.0545C3.20625 16.0545 3.45229 15.9533 3.65479 15.7508C3.85715 15.5483 3.95833 15.3022 3.95833 15.0127C3.95833 14.7232 3.85715 14.4772 3.65479 14.2747C3.45229 14.0722 3.20625 13.971 2.91667 13.971C2.62722 13.971 2.38125 14.0722 2.17875 14.2747C1.97625 14.4772 1.875 14.7232 1.875 15.0127C1.875 15.3022 1.97625 15.5483 2.17875 15.7508C2.38125 15.9533 2.62722 16.0545 2.91667 16.0545ZM8.40875 12.6906C7.80722 12.1532 7.25938 11.6513 6.76521 11.1849C6.27104 10.7187 5.84521 10.2636 5.48771 9.81974C5.13007 9.37585 4.85521 8.93189 4.66313 8.48787C4.47104 8.04398 4.375 7.58273 4.375 7.10412C4.375 6.25995 4.66396 5.54891 5.24188 4.97099C5.81979 4.39307 6.53083 4.10411 7.375 4.10411C7.47861 4.10411 7.57132 4.1103 7.65312 4.12266C7.73479 4.13488 7.81674 4.14898 7.89896 4.16495C7.83813 4.03148 7.79118 3.89613 7.75813 3.75891C7.72493 3.62182 7.70833 3.4778 7.70833 3.32682C7.70833 2.6903 7.93104 2.14925 8.37646 1.7037C8.82187 1.258 9.36271 1.03516 9.99896 1.03516C10.6353 1.03516 11.1765 1.258 11.6225 1.7037C12.0686 2.14925 12.2917 2.6903 12.2917 3.32682C12.2917 3.4796 12.2751 3.62196 12.2419 3.75391C12.2088 3.88585 12.1619 4.01863 12.101 4.15224C12.1833 4.13627 12.2652 4.12425 12.3469 4.1162C12.4287 4.10814 12.5214 4.10411 12.625 4.10411C13.3568 4.10411 13.9863 4.32738 14.5135 4.77391C15.0408 5.22057 15.376 5.78099 15.5192 6.45516C15.3287 6.42418 15.1145 6.4087 14.8765 6.4087C14.6383 6.4087 14.4193 6.41988 14.2196 6.44224C14.0957 6.1228 13.8932 5.86161 13.6121 5.6587C13.3311 5.45564 13.0033 5.35411 12.6285 5.35411C12.1241 5.35411 11.7271 5.49245 11.4375 5.76911C11.1479 6.04592 10.7617 6.46314 10.2788 7.02078H9.70042C9.20361 6.44064 8.81042 6.01787 8.52083 5.75245C8.23125 5.48689 7.84931 5.35411 7.375 5.35411C6.87056 5.35411 6.45278 5.51967 6.12167 5.85078C5.79056 6.18189 5.625 6.59967 5.625 7.10412C5.625 7.42523 5.71125 7.75682 5.88375 8.09891C6.05639 8.44113 6.30146 8.80321 6.61896 9.18516C6.9366 9.5671 7.32174 9.97335 7.77438 10.4039C8.22715 10.8345 8.73556 11.2997 9.29958 11.7997L8.40875 12.6906ZM10 4.36849C10.2896 4.36849 10.5356 4.26731 10.7379 4.06495C10.9404 3.86245 11.0417 3.61641 11.0417 3.32682C11.0417 3.03738 10.9404 2.79141 10.7379 2.58891C10.5356 2.38641 10.2896 2.28516 10 2.28516C9.71042 2.28516 9.46444 2.38641 9.26208 2.58891C9.05958 2.79141 8.95833 3.03738 8.95833 3.32682C8.95833 3.61641 9.05958 3.86245 9.26208 4.06495C9.46444 4.26731 9.71042 4.36849 10 4.36849ZM12.4952 18.391C12.2435 18.391 11.9948 18.3596 11.749 18.2968C11.503 18.2339 11.2656 18.1344 11.0369 17.9983C11.1519 17.8512 11.2669 17.6778 11.3819 17.4781C11.4969 17.2784 11.6014 17.0944 11.6954 16.9262C11.8336 17.0005 11.9717 17.0536 12.1098 17.0854C12.2478 17.1172 12.3859 17.1331 12.524 17.1331C13.0165 17.1331 13.4334 16.9578 13.7748 16.6072C14.1162 16.2568 14.2869 15.8402 14.2869 15.3572C14.2869 15.095 14.2353 14.812 14.1323 14.5083C14.0291 14.2047 13.9011 13.8306 13.7483 13.3862L14.0481 12.8879C14.6848 12.7661 15.3191 12.5961 15.951 12.3781C16.583 12.1602 16.899 11.6409 16.899 10.8204C16.899 10.2061 16.6781 9.75523 16.2365 9.46787C15.7947 9.1805 15.304 9.03682 14.7644 9.03682C14.1927 9.03682 13.5258 9.13988 12.7635 9.34599C12.0013 9.55224 11.1154 9.82363 10.1058 10.1602L9.7725 8.93578C10.7917 8.60995 11.7042 8.33432 12.51 8.10891C13.3157 7.88349 14.0554 7.77078 14.7292 7.77078C15.6288 7.77078 16.4236 8.03682 17.1138 8.56891C17.8039 9.10099 18.149 9.85148 18.149 10.8204C18.149 11.1868 18.0835 11.5347 17.9527 11.8643C17.8219 12.194 17.6378 12.4978 17.4006 12.7756C17.9712 12.8184 18.4428 13.062 18.8156 13.5064C19.1885 13.9509 19.375 14.4529 19.375 15.0127C19.375 15.6431 19.1541 16.1827 18.7123 16.6314C18.2705 17.08 17.7275 17.3043 17.0833 17.3043C16.7382 17.3043 16.4062 17.2272 16.0873 17.0729C15.7684 16.9184 15.5112 16.6981 15.3156 16.4118C15.0859 17.0059 14.7216 17.4842 14.2227 17.8468C13.7238 18.2096 13.148 18.391 12.4952 18.391ZM17.1042 16.0545C17.3936 16.0545 17.6361 15.9533 17.8317 15.7508C18.0272 15.5483 18.125 15.3022 18.125 15.0127C18.125 14.7232 18.0237 14.4738 17.8212 14.2643C17.6187 14.0549 17.3728 13.9502 17.0833 13.9502C16.7937 13.9502 16.5477 14.0514 16.3452 14.2539C16.1428 14.4564 16.0417 14.7024 16.0417 14.9918C16.0417 15.2814 16.1463 15.5309 16.3556 15.7404C16.5651 15.9498 16.8146 16.0545 17.1042 16.0545Z" fill="#1C1B1F"/>
</g>
</svg>
