<svg width="20" height="20" viewBox="0 0 20 20" fill="none" xmlns="http://www.w3.org/2000/svg">
<mask id="mask0_11051_22457" style="mask-type:alpha" maskUnits="userSpaceOnUse" x="0" y="0" width="20" height="20">
<rect width="20" height="20" fill="#D9D9D9"/>
</mask>
<g mask="url(#mask0_11051_22457)">
<path d="M3.75 17.9166V6.85888C3.75 6.44332 3.89715 6.08839 4.19146 5.79409C4.4859 5.49964 4.8409 5.35242 5.25646 5.35242H11.5304C11.946 5.35242 12.301 5.49964 12.5954 5.79409C12.8897 6.08839 13.0369 6.44332 13.0369 6.85888V17.9166L8.3975 15.5608L3.75 17.9166ZM5 15.9887L8.3975 14.1891L11.7869 15.9887V6.85888C11.7869 6.78415 11.7628 6.7227 11.7148 6.6745C11.6667 6.62645 11.6053 6.60242 11.5304 6.60242H5.25646C5.1816 6.60242 5.12014 6.62645 5.07208 6.6745C5.02403 6.7227 5 6.78415 5 6.85888V15.9887ZM15 14.7676V3.58971C15 3.51485 14.976 3.45339 14.9279 3.40534C14.8799 3.35728 14.8184 3.33325 14.7435 3.33325H6.16187V2.08325H14.7435C15.1591 2.08325 15.5141 2.2304 15.8085 2.52471C16.1028 2.81915 16.25 3.17415 16.25 3.58971V14.7676H15Z" fill="#1C1B1F"/>
</g>
</svg>
