<svg width="20" height="20" viewBox="0 0 20 20" fill="none" xmlns="http://www.w3.org/2000/svg">
<mask id="mask0_11051_17440" style="mask-type:alpha" maskUnits="userSpaceOnUse" x="0" y="0" width="20" height="20">
<rect width="20" height="20" fill="#D9D9D9"/>
</mask>
<g mask="url(#mask0_11051_17440)">
<path d="M4.42443 17.9167C4.00345 17.9167 3.64714 17.7708 3.35547 17.4792C3.0638 17.1875 2.91797 16.8312 2.91797 16.4102V5.25647C2.91797 4.8355 3.0638 4.47918 3.35547 4.18751C3.64714 3.89585 4.00345 3.75001 4.42443 3.75001H5.57818V1.9873H6.86026V3.75001H13.1744V1.9873H14.4244V3.75001H15.5782C15.9992 3.75001 16.3555 3.89585 16.6471 4.18751C16.9388 4.47918 17.0846 4.8355 17.0846 5.25647V16.4102C17.0846 16.8312 16.9388 17.1875 16.6471 17.4792C16.3555 17.7708 15.9992 17.9167 15.5782 17.9167H4.42443ZM4.42443 16.6667H15.5782C15.6423 16.6667 15.7011 16.6399 15.7544 16.5865C15.8079 16.5331 15.8346 16.4744 15.8346 16.4102V8.5898H4.16797V16.4102C4.16797 16.4744 4.19471 16.5331 4.24818 16.5865C4.30151 16.6399 4.36026 16.6667 4.42443 16.6667ZM4.16797 7.3398H15.8346V5.25647C15.8346 5.1923 15.8079 5.13355 15.7544 5.08022C15.7011 5.02675 15.6423 5.00001 15.5782 5.00001H4.42443C4.36026 5.00001 4.30151 5.02675 4.24818 5.08022C4.19471 5.13355 4.16797 5.1923 4.16797 5.25647V7.3398ZM10.0013 11.7308C9.79728 11.7308 9.62339 11.659 9.47964 11.5152C9.33603 11.3716 9.26422 11.1977 9.26422 10.9936C9.26422 10.7895 9.33603 10.6156 9.47964 10.4719C9.62339 10.3283 9.79728 10.2565 10.0013 10.2565C10.2053 10.2565 10.3792 10.3283 10.523 10.4719C10.6666 10.6156 10.7384 10.7895 10.7384 10.9936C10.7384 11.1977 10.6666 11.3716 10.523 11.5152C10.3792 11.659 10.2053 11.7308 10.0013 11.7308ZM6.66797 11.7308C6.46394 11.7308 6.29005 11.659 6.1463 11.5152C6.00269 11.3716 5.93089 11.1977 5.93089 10.9936C5.93089 10.7895 6.00269 10.6156 6.1463 10.4719C6.29005 10.3283 6.46394 10.2565 6.66797 10.2565C6.872 10.2565 7.04589 10.3283 7.18964 10.4719C7.33325 10.6156 7.40505 10.7895 7.40505 10.9936C7.40505 11.1977 7.33325 11.3716 7.18964 11.5152C7.04589 11.659 6.872 11.7308 6.66797 11.7308ZM13.3346 11.7308C13.1306 11.7308 12.9567 11.659 12.813 11.5152C12.6694 11.3716 12.5976 11.1977 12.5976 10.9936C12.5976 10.7895 12.6694 10.6156 12.813 10.4719C12.9567 10.3283 13.1306 10.2565 13.3346 10.2565C13.5387 10.2565 13.7126 10.3283 13.8563 10.4719C13.9999 10.6156 14.0717 10.7895 14.0717 10.9936C14.0717 11.1977 13.9999 11.3716 13.8563 11.5152C13.7126 11.659 13.5387 11.7308 13.3346 11.7308ZM10.0013 15C9.79728 15 9.62339 14.9281 9.47964 14.7844C9.33603 14.6408 9.26422 14.467 9.26422 14.2629C9.26422 14.0588 9.33603 13.8849 9.47964 13.7413C9.62339 13.5975 9.79728 13.5256 10.0013 13.5256C10.2053 13.5256 10.3792 13.5975 10.523 13.7413C10.6666 13.8849 10.7384 14.0588 10.7384 14.2629C10.7384 14.467 10.6666 14.6408 10.523 14.7844C10.3792 14.9281 10.2053 15 10.0013 15ZM6.66797 15C6.46394 15 6.29005 14.9281 6.1463 14.7844C6.00269 14.6408 5.93089 14.467 5.93089 14.2629C5.93089 14.0588 6.00269 13.8849 6.1463 13.7413C6.29005 13.5975 6.46394 13.5256 6.66797 13.5256C6.872 13.5256 7.04589 13.5975 7.18964 13.7413C7.33325 13.8849 7.40505 14.0588 7.40505 14.2629C7.40505 14.467 7.33325 14.6408 7.18964 14.7844C7.04589 14.9281 6.872 15 6.66797 15ZM13.3346 15C13.1306 15 12.9567 14.9281 12.813 14.7844C12.6694 14.6408 12.5976 14.467 12.5976 14.2629C12.5976 14.0588 12.6694 13.8849 12.813 13.7413C12.9567 13.5975 13.1306 13.5256 13.3346 13.5256C13.5387 13.5256 13.7126 13.5975 13.8563 13.7413C13.9999 13.8849 14.0717 14.0588 14.0717 14.2629C14.0717 14.467 13.9999 14.6408 13.8563 14.7844C13.7126 14.9281 13.5387 15 13.3346 15Z" fill="#1C1B1F"/>
</g>
</svg>
