<svg width="20" height="20" viewBox="0 0 20 20" fill="none" xmlns="http://www.w3.org/2000/svg">
<g mask="url(#mask0_9503_7121)">
<path d="M13.3325 17.9185V16.0996C12.5975 15.8869 11.9715 15.4959 11.4544 14.9264C10.9373 14.357 10.6211 13.6877 10.5056 12.9185H11.7556C11.9041 13.521 12.2161 14.0189 12.6915 14.4121C13.1669 14.8053 13.7278 15.0019 14.3742 15.0019H16.8742C17.1627 15.0019 17.4084 15.1034 17.6113 15.3064C17.8143 15.5094 17.9159 15.7551 17.9159 16.0435V17.9185H13.3325ZM15.6242 13.7519C15.2193 13.7519 14.875 13.6101 14.5913 13.3264C14.3077 13.0427 14.1659 12.6984 14.1659 12.2935C14.1659 11.8887 14.3077 11.5444 14.5913 11.2606C14.875 10.977 15.2193 10.8352 15.6242 10.8352C16.029 10.8352 16.3734 10.977 16.6571 11.2606C16.9407 11.5444 17.0825 11.8887 17.0825 12.2935C17.0825 12.6984 16.9407 13.0427 16.6571 13.3264C16.3734 13.6101 16.029 13.7519 15.6242 13.7519ZM7.81981 11.4602C7.81981 9.61186 8.46613 8.04269 9.75877 6.75269C11.0515 5.46269 12.622 4.81769 14.4702 4.81769V6.06748C12.9681 6.06748 11.6925 6.59075 10.6434 7.63727C9.59419 8.6838 9.0696 9.95811 9.0696 11.4602H7.81981ZM10.7363 11.4602C10.7363 10.4249 11.0998 9.5438 11.8269 8.81686C12.554 8.08977 13.4351 7.72623 14.4702 7.72623V8.97623C13.7812 8.97623 13.195 9.21797 12.7115 9.70144C12.228 10.1848 11.9863 10.771 11.9863 11.4602H10.7363ZM2.08252 9.16852V7.29352C2.08252 7.00505 2.18405 6.75936 2.3871 6.55644C2.59002 6.35338 2.83571 6.25186 3.12419 6.25186H5.62419C6.27058 6.25186 6.83148 6.05526 7.3069 5.66207C7.78231 5.26901 8.09426 4.77116 8.24273 4.16852H9.50085C9.39613 4.92713 9.08391 5.5938 8.56419 6.16852C8.04433 6.74338 7.41155 7.13707 6.66585 7.34957V9.16852H2.08252ZM4.37419 5.00186C3.96933 5.00186 3.62502 4.86005 3.34127 4.57644C3.05766 4.29269 2.91585 3.94838 2.91585 3.54352C2.91585 3.13866 3.05766 2.79436 3.34127 2.51061C3.62502 2.227 3.96933 2.08519 4.37419 2.08519C4.77905 2.08519 5.12335 2.227 5.4071 2.51061C5.69071 2.79436 5.83252 3.13866 5.83252 3.54352C5.83252 3.94838 5.69071 4.29269 5.4071 4.57644C5.12335 4.86005 4.77905 5.00186 4.37419 5.00186Z" fill="#757575"/>
</g>
</svg>
