<svg width="20" height="20" viewBox="0 0 20 20" fill="none" xmlns="http://www.w3.org/2000/svg">
<g mask="url(#mask0_9496_9239)">
<path d="M1.25928 16.4105V13.2855C1.25928 12.8827 1.39574 12.5417 1.66865 12.2624C1.94157 11.9829 2.27247 11.8379 2.66136 11.8272H5.23032C5.48143 11.8272 5.71997 11.8886 5.94594 12.0115C6.17178 12.1345 6.35581 12.3059 6.49803 12.5259C6.91136 13.0943 7.42386 13.5365 8.03553 13.8528C8.64719 14.169 9.3024 14.3272 10.0012 14.3272C10.7084 14.3272 11.3691 14.169 11.9834 13.8528C12.5979 13.5365 13.1075 13.0943 13.5124 12.5259C13.6716 12.3059 13.862 12.1345 14.0837 12.0115C14.3053 11.8886 14.5348 11.8272 14.772 11.8272H17.3409C17.7383 11.8379 18.0727 11.9829 18.3441 12.2624C18.6155 12.5417 18.7512 12.8827 18.7512 13.2855V16.4105H13.3345V14.4505C12.8591 14.8138 12.3388 15.0924 11.7737 15.2863C11.2084 15.4802 10.6175 15.5772 10.0012 15.5772C9.39865 15.5772 8.814 15.4794 8.24719 15.2838C7.68039 15.0884 7.15657 14.809 6.67574 14.4457V16.4105H1.25928ZM10.0012 13.1734C9.50004 13.1734 9.02539 13.0572 8.57719 12.8249C8.12914 12.5925 7.75338 12.2717 7.4499 11.8624C7.23518 11.5527 6.97344 11.2997 6.66469 11.1036C6.35594 10.9077 6.0199 10.7883 5.65657 10.7455C6.01018 10.3118 6.62796 9.97495 7.5099 9.73509C8.39185 9.49523 9.22226 9.3753 10.0012 9.3753C10.78 9.3753 11.6105 9.49523 12.4924 9.73509C13.3743 9.97495 13.9948 10.3118 14.3537 10.7455C13.9989 10.7883 13.6651 10.9077 13.3522 11.1036C13.0391 11.2997 12.7752 11.5527 12.5605 11.8624C12.2709 12.2856 11.9007 12.6099 11.4499 12.8353C10.9991 13.0607 10.5162 13.1734 10.0012 13.1734ZM3.5749 10.6734C2.94462 10.6734 2.40511 10.449 1.95636 10.0003C1.50761 9.55155 1.28324 9.01203 1.28324 8.38175C1.28324 7.73745 1.50761 7.19446 1.95636 6.7528C2.40511 6.31099 2.94462 6.09009 3.5749 6.09009C4.21907 6.09009 4.76205 6.31099 5.20386 6.7528C5.64567 7.19446 5.86657 7.73745 5.86657 8.38175C5.86657 9.01203 5.64567 9.55155 5.20386 10.0003C4.76205 10.449 4.21907 10.6734 3.5749 10.6734ZM16.4274 10.6734C15.7971 10.6734 15.2576 10.449 14.8089 10.0003C14.3601 9.55155 14.1357 9.01203 14.1357 8.38175C14.1357 7.73745 14.3601 7.19446 14.8089 6.7528C15.2576 6.31099 15.7971 6.09009 16.4274 6.09009C17.0716 6.09009 17.6146 6.31099 18.0564 6.7528C18.4982 7.19446 18.7191 7.73745 18.7191 8.38175C18.7191 9.01203 18.4982 9.55155 18.0564 10.0003C17.6146 10.449 17.0716 10.6734 16.4274 10.6734ZM10.0012 8.17342C9.37087 8.17342 8.83136 7.94905 8.38261 7.5003C7.93386 7.05155 7.70949 6.51203 7.70949 5.88175C7.70949 5.23745 7.93386 4.69446 8.38261 4.2528C8.83136 3.81099 9.37087 3.59009 10.0012 3.59009C10.6453 3.59009 11.1883 3.81099 11.6301 4.2528C12.0719 4.69446 12.2928 5.23745 12.2928 5.88175C12.2928 6.51203 12.0719 7.05155 11.6301 7.5003C11.1883 7.94905 10.6453 8.17342 10.0012 8.17342Z" fill="#757575"/>
</g>
</svg>
