<svg width="18" height="18" viewBox="0 0 18 18" fill="none" xmlns="http://www.w3.org/2000/svg">
<g clip-path="url(#clip0_9503_8474)">
<path d="M9 2.10938C9.29141 2.10938 9.52734 1.87344 9.52734 1.58203V0.527344C9.52734 0.235931 9.29141 0 9 0C8.70859 0 8.47266 0.235931 8.47266 0.527344V1.58203C8.47266 1.87344 8.70859 2.10938 9 2.10938Z" fill="#AAAAAA"/>
<path d="M11.4822 3.00957L12.5369 1.95488C12.7429 1.74889 12.7429 1.41518 12.5369 1.20918C12.3309 1.00319 11.9972 1.00319 11.7912 1.20918L10.7365 2.26387C10.5305 2.46986 10.5305 2.80357 10.7365 3.00957C10.9425 3.21556 11.2762 3.21556 11.4822 3.00957Z" fill="#AAAAAA"/>
<path d="M6.51778 3.00957C6.72377 3.21556 7.05748 3.21556 7.26347 3.00957C7.46947 2.80357 7.46947 2.46986 7.26347 2.26387L6.20879 1.20918C6.00279 1.00319 5.66908 1.00319 5.46309 1.20918C5.2571 1.41518 5.2571 1.74889 5.46309 1.95488L6.51778 3.00957Z" fill="#AAAAAA"/>
<path d="M4.74609 7.45312C4.74609 6.28981 3.80003 5.34375 2.63672 5.34375C1.4734 5.34375 0.527344 6.28981 0.527344 7.45312C0.527344 8.61644 1.4734 9.5625 2.63672 9.5625C3.80003 9.5625 4.74609 8.61644 4.74609 7.45312Z" fill="#AAAAAA"/>
<path d="M9 4.25391C8.12769 4.25391 7.41797 4.96362 7.41797 5.83594C7.41797 7.87116 5.72662 9.5625 3.69141 9.5625H2.63672C1.18295 9.5625 0 10.7455 0 12.1992V17.4727C0 17.7641 0.235931 18 0.527344 18H4.74609C5.03709 18 5.26643 17.7641 5.26643 17.4732L5.26945 12.5417C8.34906 11.8161 10.582 9.04326 10.582 5.83594C10.582 4.96362 9.87231 4.25391 9 4.25391Z" fill="#AAAAAA"/>
<path d="M17.4727 7.45312C17.4727 6.28981 16.5266 5.34375 15.3633 5.34375C14.2 5.34375 13.2539 6.28981 13.2539 7.45312C13.2539 8.61644 14.2 9.5625 15.3633 9.5625C16.5266 9.5625 17.4727 8.61644 17.4727 7.45312Z" fill="#AAAAAA"/>
<path d="M15.3633 9.56252H14.3086C13.096 9.56252 11.9921 8.93176 11.3188 8.02594C11.0102 9.11469 10.4727 10.1028 9.75488 10.9489C10.5957 11.6911 11.6348 12.2803 12.7304 12.5412L12.7336 17.4732C12.7336 17.7641 12.9629 18 13.2539 18H17.4726C17.7641 18 18 17.7641 18 17.4727V12.1992C18 10.7455 16.817 9.56252 15.3633 9.56252Z" fill="#AAAAAA"/>
</g>
<defs>
<clipPath id="clip0_9503_8474">
<rect width="18" height="18" fill="white"/>
</clipPath>
</defs>
</svg>
