<svg width="20" height="20" viewBox="0 0 20 20" fill="none" xmlns="http://www.w3.org/2000/svg">
<mask id="mask0_11051_17411" style="mask-type:alpha" maskUnits="userSpaceOnUse" x="0" y="0" width="20" height="20">
<rect width="20" height="20" fill="#D9D9D9"/>
</mask>
<g mask="url(#mask0_11051_17411)">
<path d="M5.41536 2.5C4.80634 2.5 4.30689 2.83924 3.91703 3.51771C3.52703 4.19604 3.33203 4.96792 3.33203 5.83333C3.33203 6.67097 3.45759 7.45326 3.7087 8.18021C3.95967 8.90729 4.2321 9.48292 4.52599 9.90708L6.56912 9.45667C6.76037 9.01222 6.96314 8.46389 7.17745 7.81167C7.39161 7.15944 7.4987 6.5 7.4987 5.83333C7.4987 4.96792 7.3037 4.19604 6.9137 3.51771C6.52384 2.83924 6.02439 2.5 5.41536 2.5ZM6.5612 13.3333C6.83037 13.3333 7.05391 13.2335 7.23182 13.0337C7.40974 12.8339 7.4987 12.5657 7.4987 12.2292C7.4987 11.9931 7.43912 11.7367 7.31995 11.46C7.20092 11.1832 7.05912 10.9156 6.89453 10.6571L4.9987 11.0898C4.9987 11.7308 5.12689 12.2649 5.38328 12.6923C5.63967 13.1197 6.03231 13.3333 6.5612 13.3333ZM14.582 6.66667C13.973 6.66667 13.4736 7.0059 13.0837 7.68437C12.6937 8.36271 12.4987 9.13458 12.4987 10C12.4987 10.6667 12.6072 11.3226 12.8241 11.9679C13.0409 12.6132 13.2423 13.165 13.4283 13.6233L15.4393 14.1219C15.792 13.5695 16.0845 12.9626 16.3168 12.3012C16.5492 11.64 16.6654 10.8729 16.6654 10C16.6654 9.13458 16.4704 8.36271 16.0804 7.68437C15.6905 7.0059 15.1911 6.66667 14.582 6.66667ZM13.4362 17.5C13.9544 17.5 14.3443 17.289 14.606 16.8671C14.8678 16.445 14.9987 15.9268 14.9987 15.3125L13.111 14.8156C12.9838 15.0422 12.8499 15.2951 12.7095 15.5746C12.569 15.8539 12.4987 16.1276 12.4987 16.3958C12.4987 16.6789 12.5881 16.9337 12.767 17.1602C12.9461 17.3867 13.1691 17.5 13.4362 17.5ZM6.5612 14.5833C5.65203 14.5833 4.95037 14.2383 4.4562 13.5481C3.96217 12.8578 3.72634 12.041 3.7487 11.0977L3.30953 10.351C3.09273 10.0134 2.83398 9.43861 2.53328 8.62667C2.23245 7.81458 2.08203 6.88347 2.08203 5.83333C2.08203 4.52028 2.39745 3.42812 3.02828 2.55687C3.65925 1.68562 4.45495 1.25 5.41536 1.25C6.43037 1.25 7.23967 1.71819 7.84328 2.65458C8.44689 3.59111 8.7487 4.65069 8.7487 5.83333C8.7487 6.60153 8.63627 7.33521 8.41141 8.03438C8.18641 8.73368 7.97995 9.305 7.79203 9.74833L8.06286 10.1956C8.20064 10.4274 8.34939 10.7324 8.50912 11.1106C8.66884 11.4888 8.7487 11.8617 8.7487 12.2292C8.7487 12.9033 8.54224 13.4642 8.12932 13.9119C7.71641 14.3595 7.1937 14.5833 6.5612 14.5833ZM13.4362 18.75C12.8037 18.75 12.281 18.5262 11.8681 18.0785C11.4552 17.6309 11.2487 17.07 11.2487 16.3958C11.2487 16.0283 11.3286 15.6555 11.4883 15.2773C11.648 14.8991 11.7968 14.5941 11.9345 14.3623L12.2054 13.915C12.0227 13.4769 11.8177 12.907 11.5902 12.2052C11.3625 11.5033 11.2487 10.7682 11.2487 10C11.2487 8.81736 11.5505 7.75778 12.1541 6.82125C12.7577 5.88486 13.567 5.41667 14.582 5.41667C15.5424 5.41667 16.3381 5.85229 16.9691 6.72354C17.5999 7.59479 17.9154 8.68694 17.9154 10C17.9154 11.0501 17.7663 11.9764 17.4683 12.7788C17.1702 13.5811 16.9101 14.1565 16.6879 14.5048L16.2487 15.1923C16.2572 16.0555 16.0352 16.8642 15.5829 17.6185C15.1304 18.3728 14.4148 18.75 13.4362 18.75Z" fill="#121212"/>
</g>
</svg>
