<svg width="20" height="20" viewBox="0 0 20 20" fill="none" xmlns="http://www.w3.org/2000/svg">
<g mask="url(#mask0_9496_9245)">
<path d="M17.2422 15.9185C17.1739 16.0253 17.0604 16.086 16.9018 16.1004C16.743 16.1149 16.6006 16.059 16.4745 15.9329L14.8064 14.2646H6.66531C6.2599 14.2646 5.91281 14.1202 5.62406 13.8315C5.33531 13.5428 5.19094 13.1958 5.19094 12.7902V12.2775H14.2616C14.6757 12.2775 15.0303 12.13 15.3253 11.835C15.6203 11.54 15.7678 11.1853 15.7678 10.771V5.00187H16.2807C16.6861 5.00187 17.0332 5.14625 17.322 5.435C17.6107 5.72375 17.7551 6.07083 17.7551 6.47625V15.3929C17.7551 15.5467 17.7038 15.6727 17.6011 15.771C17.4986 15.8694 17.379 15.9185 17.2422 15.9185ZM3.49219 10.5404L4.67177 9.36083H12.5949C12.6696 9.36083 12.731 9.3368 12.7791 9.28875C12.8271 9.24069 12.8511 9.17923 12.8511 9.10437V3.59166C12.8511 3.5168 12.8271 3.45534 12.7791 3.40729C12.731 3.35923 12.6696 3.3352 12.5949 3.3352H3.74865C3.67392 3.3352 3.61247 3.35923 3.56427 3.40729C3.51622 3.45534 3.49219 3.5168 3.49219 3.59166V10.5404ZM2.99281 12.505C2.79906 12.505 2.62552 12.4345 2.47219 12.2935C2.31885 12.1524 2.24219 11.9664 2.24219 11.7354V3.59166C2.24219 3.17736 2.38969 2.8227 2.68469 2.5277C2.97969 2.2327 3.33434 2.08521 3.74865 2.08521H12.5949C13.0091 2.08521 13.3636 2.2327 13.6586 2.5277C13.9536 2.8227 14.1011 3.17736 14.1011 3.59166V9.10437C14.1011 9.51868 13.9536 9.87333 13.6586 10.1683C13.3636 10.4633 13.0091 10.6108 12.5949 10.6108H5.19094L3.52281 12.2792C3.44476 12.3571 3.36115 12.4142 3.27198 12.4506C3.18267 12.4869 3.08962 12.505 2.99281 12.505Z" fill="#757575"/>
</g>
</svg>
