<svg width="20" height="20" viewBox="0 0 20 20" fill="none" xmlns="http://www.w3.org/2000/svg">
<mask id="mask0_11051_6250" style="mask-type:alpha" maskUnits="userSpaceOnUse" x="0" y="0" width="20" height="20">
<rect width="20" height="20" fill="#D9D9D9"/>
</mask>
<g mask="url(#mask0_11051_6250)">
<path d="M9.95797 13.838C10.1963 13.838 10.3974 13.756 10.5613 13.592C10.7253 13.428 10.8073 13.2269 10.8073 12.9887C10.8073 12.7505 10.7253 12.5494 10.5613 12.3853C10.3974 12.2213 10.1963 12.1393 9.95797 12.1393C9.71978 12.1393 9.51866 12.2213 9.35464 12.3853C9.19061 12.5494 9.10859 12.7505 9.10859 12.9887C9.10859 13.2269 9.19061 13.428 9.35464 13.592C9.51866 13.756 9.71978 13.838 9.95797 13.838ZM9.36839 10.8541H10.5413C10.5467 10.6446 10.5612 10.4646 10.5846 10.3141C10.6081 10.1634 10.6546 10.017 10.724 9.87492C10.7935 9.73284 10.8816 9.59582 10.9884 9.46388C11.0953 9.33193 11.238 9.17672 11.4163 8.99825C11.8598 8.55492 12.1769 8.17804 12.3676 7.86763C12.5582 7.55735 12.6536 7.20457 12.6536 6.80929C12.6536 6.11582 12.4169 5.55679 11.9436 5.13221C11.4703 4.70749 10.8607 4.49513 10.1151 4.49513C9.43672 4.49513 8.85686 4.66791 8.37547 5.01346C7.89422 5.35916 7.55207 5.80923 7.34901 6.36367L8.41964 6.79325C8.53825 6.43964 8.73533 6.15089 9.01089 5.927C9.28658 5.70311 9.63221 5.59117 10.0478 5.59117C10.4976 5.59117 10.8489 5.71325 11.1015 5.95742C11.3542 6.20159 11.4805 6.49832 11.4805 6.84763C11.4805 7.10513 11.4041 7.35784 11.2513 7.60575C11.0985 7.85353 10.863 8.12117 10.5446 8.40867C10.3245 8.60311 10.1415 8.79138 9.99568 8.97346C9.84985 9.15568 9.72832 9.34291 9.6311 9.53513C9.53387 9.72749 9.46575 9.92756 9.42672 10.1353C9.38783 10.3431 9.36839 10.5827 9.36839 10.8541ZM10.0013 18.5737L7.67755 16.2499H4.42443C4.00345 16.2499 3.64714 16.1041 3.35547 15.8124C3.0638 15.5208 2.91797 15.1644 2.91797 14.7435V3.58971C2.91797 3.16874 3.0638 2.81242 3.35547 2.52075C3.64714 2.22909 4.00345 2.08325 4.42443 2.08325H15.5782C15.9992 2.08325 16.3555 2.22909 16.6471 2.52075C16.9388 2.81242 17.0846 3.16874 17.0846 3.58971V14.7435C17.0846 15.1644 16.9388 15.5208 16.6471 15.8124C16.3555 16.1041 15.9992 16.2499 15.5782 16.2499H12.3251L10.0013 18.5737ZM4.42443 14.9999H8.18401L10.0013 16.8172L11.8186 14.9999H15.5782C15.653 14.9999 15.7145 14.9759 15.7626 14.9278C15.8106 14.8798 15.8346 14.8183 15.8346 14.7435V3.58971C15.8346 3.51485 15.8106 3.45339 15.7626 3.40534C15.7145 3.35728 15.653 3.33325 15.5782 3.33325H4.42443C4.34957 3.33325 4.28811 3.35728 4.24005 3.40534C4.192 3.45339 4.16797 3.51485 4.16797 3.58971V14.7435C4.16797 14.8183 4.192 14.8798 4.24005 14.9278C4.28811 14.9759 4.34957 14.9999 4.42443 14.9999Z" fill="#1C1B1F"/>
</g>
</svg>
