<svg width="24" height="24" viewBox="0 0 24 24" fill="none" xmlns="http://www.w3.org/2000/svg">
<mask id="mask0_66_418" style="mask-type:alpha" maskUnits="userSpaceOnUse" x="0" y="0" width="24" height="24">
<rect width="24" height="24" fill="#D9D9D9"/>
</mask>
<g mask="url(#mask0_66_418)">
<path d="M4.30848 20.4992C3.80332 20.4992 3.37573 20.3242 3.02573 19.9742C2.67573 19.6242 2.50073 19.1966 2.50073 18.6915V5.30696C2.50073 4.80179 2.67573 4.37421 3.02573 4.02421C3.37573 3.67421 3.80332 3.49921 4.30848 3.49921H19.693C20.1982 3.49921 20.6257 3.67421 20.9757 4.02421C21.3257 4.37421 21.5007 4.80179 21.5007 5.30696V18.6915C21.5007 19.1966 21.3257 19.6242 20.9757 19.9742C20.6257 20.3242 20.1982 20.4992 19.693 20.4992H4.30848ZM4.30848 18.9992H19.693C19.77 18.9992 19.8405 18.9671 19.9045 18.903C19.9687 18.839 20.0007 18.7685 20.0007 18.6915V5.30696C20.0007 5.22996 19.9687 5.15946 19.9045 5.09546C19.8405 5.03129 19.77 4.99921 19.693 4.99921H4.30848C4.23148 4.99921 4.16098 5.03129 4.09698 5.09546C4.03282 5.15946 4.00073 5.22996 4.00073 5.30696V18.6915C4.00073 18.7685 4.03282 18.839 4.09698 18.903C4.16098 18.9671 4.23148 18.9992 4.30848 18.9992ZM6.38548 16.6145H17.616V15.1147H6.38548V16.6145ZM6.38548 12.7492H10.0777V7.38396H6.38548V12.7492ZM12.27 12.7492H17.616V11.2492H12.27V12.7492ZM12.27 8.88371H17.616V7.38396H12.27V8.88371Z" fill="#FBBC05"/>
</g>
</svg>
