<svg width="25" height="24" viewBox="0 0 25 24" fill="none" xmlns="http://www.w3.org/2000/svg">
<mask id="mask0_66_428" style="mask-type:alpha" maskUnits="userSpaceOnUse" x="0" y="0" width="25" height="24">
<rect x="0.5" width="24" height="24" fill="#D9D9D9"/>
</mask>
<g mask="url(#mask0_66_428)">
<path d="M5.80702 20.5C5.30835 20.5 4.88235 20.3234 4.52902 19.9703C4.17585 19.6169 3.99927 19.1909 3.99927 18.6923V5.30775C3.99927 4.80908 4.17585 4.38308 4.52902 4.02975C4.88235 3.67658 5.30835 3.5 5.80702 3.5H10.257C10.3199 2.94483 10.5622 2.47275 10.984 2.08375C11.4057 1.69458 11.9108 1.5 12.4993 1.5C13.0941 1.5 13.6024 1.69458 14.0243 2.08375C14.4461 2.47275 14.6852 2.94483 14.7415 3.5H19.1915C19.6902 3.5 20.1162 3.67658 20.4695 4.02975C20.8227 4.38308 20.9993 4.80908 20.9993 5.30775V18.6923C20.9993 19.1909 20.8227 19.6169 20.4695 19.9703C20.1162 20.3234 19.6902 20.5 19.1915 20.5H5.80702ZM5.80702 19H19.1915C19.2685 19 19.339 18.9679 19.403 18.9038C19.4672 18.8398 19.4993 18.7693 19.4993 18.6923V5.30775C19.4993 5.23075 19.4672 5.16025 19.403 5.09625C19.339 5.03208 19.2685 5 19.1915 5H5.80702C5.73002 5 5.65952 5.03208 5.59552 5.09625C5.53135 5.16025 5.49927 5.23075 5.49927 5.30775V18.6923C5.49927 18.7693 5.53135 18.8398 5.59552 18.9038C5.65952 18.9679 5.73002 19 5.80702 19ZM7.74927 16.6345H14.2493V15.1348H7.74927V16.6345ZM7.74927 12.75H17.2493V11.25H7.74927V12.75ZM7.74927 8.86525H17.2493V7.3655H7.74927V8.86525ZM12.4993 4.34625C12.7159 4.34625 12.8951 4.27542 13.0368 4.13375C13.1784 3.99208 13.2493 3.81292 13.2493 3.59625C13.2493 3.37958 13.1784 3.20042 13.0368 3.05875C12.8951 2.91708 12.7159 2.84625 12.4993 2.84625C12.2826 2.84625 12.1034 2.91708 11.9618 3.05875C11.8201 3.20042 11.7493 3.37958 11.7493 3.59625C11.7493 3.81292 11.8201 3.99208 11.9618 4.13375C12.1034 4.27542 12.2826 4.34625 12.4993 4.34625Z" fill="#FBBC05"/>
</g>
</svg>
