<svg width="25" height="24" viewBox="0 0 25 24" fill="none" xmlns="http://www.w3.org/2000/svg">
<mask id="mask0_66_433" style="mask-type:alpha" maskUnits="userSpaceOnUse" x="0" y="0" width="25" height="24">
<rect x="0.75" width="24" height="24" fill="#D9D9D9"/>
</mask>
<g mask="url(#mask0_66_433)">
<path d="M5.05775 19.5C4.55258 19.5 4.125 19.325 3.775 18.975C3.425 18.625 3.25 18.1974 3.25 17.6923V6.30775C3.25 5.80258 3.425 5.375 3.775 5.025C4.125 4.675 4.55258 4.5 5.05775 4.5H20.4423C20.9474 4.5 21.375 4.675 21.725 5.025C22.075 5.375 22.25 5.80258 22.25 6.30775V17.6923C22.25 18.1974 22.075 18.625 21.725 18.975C21.375 19.325 20.9474 19.5 20.4423 19.5H5.05775ZM12.75 12.5577L4.75 7.44225V17.6923C4.75 17.7821 4.77883 17.8558 4.8365 17.9135C4.89417 17.9712 4.96792 18 5.05775 18H20.4423C20.5321 18 20.6058 17.9712 20.6635 17.9135C20.7212 17.8558 20.75 17.7821 20.75 17.6923V7.44225L12.75 12.5577ZM12.75 11L20.5963 6H4.90375L12.75 11ZM4.75 7.44225V6V17.6923C4.75 17.7821 4.77883 17.8558 4.8365 17.9135C4.89417 17.9712 4.96792 18 5.05775 18H4.75V7.44225Z" fill="#FBBC05"/>
</g>
</svg>
