<svg width="25" height="24" viewBox="0 0 25 24" fill="none" xmlns="http://www.w3.org/2000/svg">
<g mask="url(#mask0_9496_3882)">
<path d="M16.251 21.4996V19.3169C15.369 19.0617 14.6177 18.5925 13.9972 17.9091C13.3767 17.2258 12.9972 16.4226 12.8587 15.4996H14.3587C14.5369 16.2226 14.9112 16.8201 15.4817 17.2919C16.0522 17.7637 16.7253 17.9996 17.501 17.9996H20.501C20.8471 17.9996 21.142 18.1215 21.3855 18.3651C21.6291 18.6086 21.751 18.9035 21.751 19.2496V21.4996H16.251ZM19.001 16.4996C18.5151 16.4996 18.102 16.3295 17.7615 15.9891C17.4211 15.6486 17.251 15.2355 17.251 14.7496C17.251 14.2638 17.4211 13.8506 17.7615 13.5101C18.102 13.1698 18.5151 12.9996 19.001 12.9996C19.4868 12.9996 19.9 13.1698 20.2405 13.5101C20.5808 13.8506 20.751 14.2638 20.751 14.7496C20.751 15.2355 20.5808 15.6486 20.2405 15.9891C19.9 16.3295 19.4868 16.4996 19.001 16.4996ZM9.63573 13.7496C9.63573 11.5316 10.4113 9.64863 11.9625 8.10063C13.5138 6.55263 15.3984 5.77863 17.6162 5.77863V7.27839C15.8137 7.27839 14.283 7.9063 13.024 9.16213C11.765 10.418 11.1355 11.9471 11.1355 13.7496H9.63573ZM13.1355 13.7496C13.1355 12.5073 13.5717 11.45 14.4442 10.5776C15.3167 9.70513 16.3741 9.26889 17.6162 9.26889V10.7689C16.7894 10.7689 16.0859 11.059 15.5057 11.6391C14.9256 12.2191 14.6355 12.9226 14.6355 13.7496H13.1355ZM2.75098 10.9996V8.74963C2.75098 8.40347 2.87281 8.10863 3.11648 7.86513C3.35998 7.62147 3.65481 7.49963 4.00098 7.49963H7.00098C7.77664 7.49963 8.44973 7.26372 9.02023 6.79188C9.59073 6.32022 9.96506 5.7228 10.1432 4.99963H11.653C11.5273 5.90997 11.1526 6.70997 10.529 7.39963C9.90514 8.08947 9.14581 8.56188 8.25098 8.81688V10.9996H2.75098ZM5.50098 5.99963C5.01514 5.99963 4.60198 5.82947 4.26148 5.48913C3.92114 5.14863 3.75098 4.73547 3.75098 4.24963C3.75098 3.7638 3.92114 3.35063 4.26148 3.01013C4.60198 2.6698 5.01514 2.49963 5.50098 2.49963C5.98681 2.49963 6.39998 2.6698 6.74048 3.01013C7.08081 3.35063 7.25098 3.7638 7.25098 4.24963C7.25098 4.73547 7.08081 5.14863 6.74048 5.48913C6.39998 5.82947 5.98681 5.99963 5.50098 5.99963Z" fill="#AAAAAA"/>
</g>
</svg>
