<svg width="25" height="24" viewBox="0 0 25 24" fill="none" xmlns="http://www.w3.org/2000/svg">
<mask id="mask0_66_423" style="mask-type:alpha" maskUnits="userSpaceOnUse" x="0" y="0" width="25" height="24">
<rect x="0.25" width="24" height="24" fill="#FBBC05"/>
</mask>
<g mask="url(#mask0_66_423)">
<path d="M16.2507 21.4996V19.3169C15.3687 19.0617 14.6175 18.5925 13.997 17.9091C13.3765 17.2258 12.997 16.4226 12.8585 15.4996H14.3585C14.5367 16.2226 14.911 16.8201 15.4815 17.2919C16.052 17.7637 16.7251 17.9996 17.5007 17.9996H20.5007C20.8469 17.9996 21.1417 18.1215 21.3852 18.3651C21.6289 18.6086 21.7507 18.9035 21.7507 19.2496V21.4996H16.2507ZM19.0007 16.4996C18.5149 16.4996 18.1017 16.3295 17.7612 15.9891C17.4209 15.6486 17.2507 15.2355 17.2507 14.7496C17.2507 14.2638 17.4209 13.8506 17.7612 13.5101C18.1017 13.1698 18.5149 12.9996 19.0007 12.9996C19.4866 12.9996 19.8997 13.1698 20.2402 13.5101C20.5806 13.8506 20.7507 14.2638 20.7507 14.7496C20.7507 15.2355 20.5806 15.6486 20.2402 15.9891C19.8997 16.3295 19.4866 16.4996 19.0007 16.4996ZM9.63548 13.7496C9.63548 11.5316 10.4111 9.64863 11.9622 8.10063C13.5136 6.55263 15.3982 5.77863 17.616 5.77863V7.27839C15.8135 7.27839 14.2827 7.9063 13.0237 9.16213C11.7647 10.418 11.1352 11.9471 11.1352 13.7496H9.63548ZM13.1352 13.7496C13.1352 12.5073 13.5715 11.45 14.444 10.5776C15.3165 9.70513 16.3738 9.26888 17.616 9.26888V10.7689C16.7892 10.7689 16.0857 11.059 15.5055 11.6391C14.9253 12.2191 14.6352 12.9226 14.6352 13.7496H13.1352ZM2.75073 10.9996V8.74963C2.75073 8.40347 2.87257 8.10863 3.11623 7.86513C3.35973 7.62147 3.65457 7.49963 4.00073 7.49963H7.00073C7.7764 7.49963 8.44948 7.26372 9.01998 6.79188C9.59048 6.32022 9.96482 5.7228 10.143 4.99963H11.6527C11.5271 5.90997 11.1524 6.70997 10.5287 7.39963C9.9049 8.08947 9.14557 8.56188 8.25073 8.81688V10.9996H2.75073ZM5.50073 5.99963C5.0149 5.99963 4.60173 5.82947 4.26123 5.48913C3.9209 5.14863 3.75073 4.73547 3.75073 4.24963C3.75073 3.7638 3.9209 3.35063 4.26123 3.01013C4.60173 2.6698 5.0149 2.49963 5.50073 2.49963C5.98657 2.49963 6.39973 2.6698 6.74023 3.01013C7.08057 3.35063 7.25073 3.7638 7.25073 4.24963C7.25073 4.73547 7.08057 5.14863 6.74023 5.48913C6.39973 5.82947 5.98657 5.99963 5.50073 5.99963Z" fill="#FBBC05"/>
</g>
</svg>
