<svg width="24" height="24" viewBox="0 0 24 24" fill="none" xmlns="http://www.w3.org/2000/svg">
<g mask="url(#mask0_9496_3877)">
<path d="M4.30873 20.4993C3.80356 20.4993 3.37598 20.3243 3.02598 19.9743C2.67598 19.6243 2.50098 19.1967 2.50098 18.6915V5.30702C2.50098 4.80185 2.67598 4.37427 3.02598 4.02427C3.37598 3.67427 3.80356 3.49927 4.30873 3.49927H19.6932C20.1984 3.49927 20.626 3.67427 20.976 4.02427C21.326 4.37427 21.501 4.80185 21.501 5.30702V18.6915C21.501 19.1967 21.326 19.6243 20.976 19.9743C20.626 20.3243 20.1984 20.4993 19.6932 20.4993H4.30873ZM4.30873 18.9993H19.6932C19.7702 18.9993 19.8407 18.9672 19.9047 18.903C19.9689 18.839 20.001 18.7685 20.001 18.6915V5.30702C20.001 5.23002 19.9689 5.15952 19.9047 5.09552C19.8407 5.03135 19.7702 4.99927 19.6932 4.99927H4.30873C4.23173 4.99927 4.16123 5.03135 4.09723 5.09552C4.03306 5.15952 4.00098 5.23002 4.00098 5.30702V18.6915C4.00098 18.7685 4.03306 18.839 4.09723 18.903C4.16123 18.9672 4.23173 18.9993 4.30873 18.9993ZM6.38573 16.6145H17.6162V15.1148H6.38573V16.6145ZM6.38573 12.7493H10.078V7.38402H6.38573V12.7493ZM12.2702 12.7493H17.6162V11.2493H12.2702V12.7493ZM12.2702 8.88377H17.6162V7.38402H12.2702V8.88377Z" fill="#AAAAAA"/>
</g>
</svg>
