<svg width="25" height="24" viewBox="0 0 25 24" fill="none" xmlns="http://www.w3.org/2000/svg">
<g mask="url(#mask0_9496_3887)">
<path d="M5.80677 20.5C5.30811 20.5 4.88211 20.3234 4.52877 19.9703C4.17561 19.6169 3.99902 19.1909 3.99902 18.6923V5.30775C3.99902 4.80908 4.17561 4.38308 4.52877 4.02975C4.88211 3.67658 5.30811 3.5 5.80677 3.5H10.2568C10.3196 2.94483 10.5619 2.47275 10.9838 2.08375C11.4054 1.69458 11.9105 1.5 12.499 1.5C13.0939 1.5 13.6022 1.69458 14.024 2.08375C14.4459 2.47275 14.6849 2.94483 14.7413 3.5H19.1913C19.6899 3.5 20.1159 3.67658 20.4693 4.02975C20.8224 4.38308 20.999 4.80908 20.999 5.30775V18.6923C20.999 19.1909 20.8224 19.6169 20.4693 19.9703C20.1159 20.3234 19.6899 20.5 19.1913 20.5H5.80677ZM5.80677 19H19.1913C19.2683 19 19.3388 18.9679 19.4028 18.9038C19.4669 18.8398 19.499 18.7693 19.499 18.6923V5.30775C19.499 5.23075 19.4669 5.16025 19.4028 5.09625C19.3388 5.03208 19.2683 5 19.1913 5H5.80677C5.72977 5 5.65927 5.03208 5.59527 5.09625C5.53111 5.16025 5.49902 5.23075 5.49902 5.30775V18.6923C5.49902 18.7693 5.53111 18.8398 5.59527 18.9038C5.65927 18.9679 5.72977 19 5.80677 19ZM7.74902 16.6345H14.249V15.1348H7.74902V16.6345ZM7.74902 12.75H17.249V11.25H7.74902V12.75ZM7.74902 8.86525H17.249V7.3655H7.74902V8.86525ZM12.499 4.34625C12.7157 4.34625 12.8949 4.27542 13.0365 4.13375C13.1782 3.99208 13.249 3.81292 13.249 3.59625C13.249 3.37958 13.1782 3.20042 13.0365 3.05875C12.8949 2.91708 12.7157 2.84625 12.499 2.84625C12.2824 2.84625 12.1032 2.91708 11.9615 3.05875C11.8199 3.20042 11.749 3.37958 11.749 3.59625C11.749 3.81292 11.8199 3.99208 11.9615 4.13375C12.1032 4.27542 12.2824 4.34625 12.499 4.34625Z" fill="#AAAAAA"/>
</g>
</svg>
