<svg width="32" height="32" viewBox="0 0 32 32" fill="none" xmlns="http://www.w3.org/2000/svg">
<mask id="mask0_8902_96379" style="mask-type:alpha" maskUnits="userSpaceOnUse" x="0" y="0" width="32" height="32">
<rect width="32" height="32" fill="#D9D9D9"/>
</mask>
<g mask="url(#mask0_8902_96379)">
<path d="M7.07733 27.3333C6.40377 27.3333 5.83366 27.1 5.36699 26.6333C4.90033 26.1666 4.66699 25.5965 4.66699 24.923V7.07696C4.66699 6.4034 4.90033 5.83329 5.36699 5.36663C5.83366 4.89996 6.40377 4.66663 7.07733 4.66663H24.9233C25.5969 4.66663 26.167 4.89996 26.6337 5.36663C27.1003 5.83329 27.3337 6.4034 27.3337 7.07696V24.923C27.3337 25.5965 27.1003 26.1666 26.6337 26.6333C26.167 27.1 25.5969 27.3333 24.9233 27.3333H7.07733ZM7.07733 25.3333H24.9233C25.026 25.3333 25.12 25.2905 25.2053 25.205C25.2909 25.1196 25.3337 25.0256 25.3337 24.923V7.07696C25.3337 6.97429 25.2909 6.88029 25.2053 6.79496C25.12 6.7094 25.026 6.66663 24.9233 6.66663H7.07733C6.97466 6.66663 6.88066 6.7094 6.79533 6.79496C6.70977 6.88029 6.66699 6.97429 6.66699 7.07696V24.923C6.66699 25.0256 6.70977 25.1196 6.79533 25.205C6.88066 25.2905 6.97466 25.3333 7.07733 25.3333ZM9.00033 22.3333H23.1027L18.7183 16.4873L14.9747 21.359L12.308 17.9486L9.00033 22.3333Z" fill="#757575"/>
</g>
</svg>
