<svg width="32" height="32" viewBox="0 0 32 32" fill="none" xmlns="http://www.w3.org/2000/svg">
<mask id="mask0_8902_65824" style="mask-type:alpha" maskUnits="userSpaceOnUse" x="0" y="0" width="32" height="32">
<rect width="32" height="32" fill="#D9D9D9"/>
</mask>
<g mask="url(#mask0_8902_65824)">
<path d="M7.07733 27.3334C6.40377 27.3334 5.83366 27.1001 5.36699 26.6334C4.90033 26.1667 4.66699 25.5966 4.66699 24.9231V7.07708C4.66699 6.40353 4.90033 5.83341 5.36699 5.36675C5.83366 4.90008 6.40377 4.66675 7.07733 4.66675H17.0773V6.66675H7.07733C6.95755 6.66675 6.85921 6.70519 6.78233 6.78208C6.70544 6.85897 6.66699 6.9573 6.66699 7.07708V24.9231C6.66699 25.0429 6.70544 25.1412 6.78233 25.2181C6.85921 25.295 6.95755 25.3334 7.07733 25.3334H24.9233C25.0431 25.3334 25.1414 25.295 25.2183 25.2181C25.2952 25.1412 25.3337 25.0429 25.3337 24.9231V14.9231H27.3337V24.9231C27.3337 25.5966 27.1003 26.1667 26.6337 26.6334C26.167 27.1001 25.5969 27.3334 24.9233 27.3334H7.07733ZM8.51333 22.2564H23.4873L18.8337 16.0514L14.8337 21.2437L12.0003 17.6411L8.51333 22.2564ZM22.667 12.0001V9.33341H20.0003V7.33341H22.667V4.66675H24.667V7.33341H27.3337V9.33341H24.667V12.0001H22.667Z" fill="#AAAAAA"/>
</g>
</svg>
