<svg width="20" height="20" viewBox="0 0 20 20" fill="none" xmlns="http://www.w3.org/2000/svg">
<mask id="mask0_11051_23526" style="mask-type:alpha" maskUnits="userSpaceOnUse" x="0" y="0" width="20" height="20">
<rect width="20" height="20" fill="#D9D9D9"/>
</mask>
<g mask="url(#mask0_11051_23526)">
<path d="M9.13833 13.1411C9.13833 12.1977 9.24701 11.4755 9.46437 10.9744C9.68174 10.4733 10.1356 9.91774 10.8258 9.30774C11.3632 8.82913 11.7705 8.3951 12.0477 8.00566C12.3249 7.61621 12.4635 7.17469 12.4635 6.68108C12.4635 6.02621 12.2406 5.48191 11.7946 5.04816C11.3485 4.61441 10.7344 4.39753 9.95229 4.39753C9.23868 4.39753 8.68313 4.58871 8.28563 4.97107C7.88826 5.35357 7.58646 5.78045 7.38021 6.2517L5.85938 5.58337C6.18313 4.78531 6.68847 4.11996 7.37542 3.58732C8.06236 3.05482 8.92132 2.78857 9.95229 2.78857C11.2984 2.78857 12.3344 3.16809 13.0604 3.92712C13.7864 4.68614 14.1494 5.58705 14.1494 6.62982C14.1494 7.28149 14.0081 7.85656 13.7256 8.35503C13.443 8.85337 13.0143 9.37232 12.4396 9.91191C11.7163 10.5754 11.2683 11.0986 11.0958 11.4815C10.9232 11.8645 10.8369 12.4177 10.8369 13.1411H9.13833ZM9.95229 17.9167C9.61146 17.9167 9.31792 17.7936 9.07167 17.5473C8.82542 17.3011 8.70229 17.0075 8.70229 16.6667C8.70229 16.3259 8.82542 16.0323 9.07167 15.7861C9.31792 15.5398 9.61146 15.4167 9.95229 15.4167C10.2931 15.4167 10.5867 15.5398 10.8329 15.7861C11.0792 16.0323 11.2023 16.3259 11.2023 16.6667C11.2023 17.0075 11.0792 17.3011 10.8329 17.5473C10.5867 17.7936 10.2931 17.9167 9.95229 17.9167Z" fill="#1C1B1F"/>
</g>
</svg>
