<svg width="20" height="20" viewBox="0 0 20 20" fill="none" xmlns="http://www.w3.org/2000/svg">
<mask id="mask0_11051_22546" style="mask-type:alpha" maskUnits="userSpaceOnUse" x="0" y="0" width="20" height="20">
<rect width="20" height="20" fill="#D9D9D9"/>
</mask>
<g mask="url(#mask0_11051_22546)">
<path d="M9.99995 18.8397L7.38287 16.2499H3.74995V12.617L1.16016 9.99995L3.74995 7.38287V3.74995H7.38287L9.99995 1.16016L12.617 3.74995H16.2499V7.38287L18.8397 9.99995L16.2499 12.617V16.2499H12.617L9.99995 18.8397ZM9.99995 13.846C11.064 13.846 11.971 13.471 12.721 12.721C13.471 11.971 13.846 11.064 13.846 9.99995C13.846 8.93592 13.471 8.02891 12.721 7.27891C11.971 6.52891 11.064 6.15391 9.99995 6.15391C8.93592 6.15391 8.02891 6.52891 7.27891 7.27891C6.52891 8.02891 6.15391 8.93592 6.15391 9.99995C6.15391 11.064 6.52891 11.971 7.27891 12.721C8.02891 13.471 8.93592 13.846 9.99995 13.846ZM9.99995 12.5962C9.27884 12.5962 8.66585 12.3438 8.16099 11.8389C7.65613 11.334 7.4037 10.7211 7.4037 9.99995C7.4037 9.27884 7.65613 8.66585 8.16099 8.16099C8.66585 7.65613 9.27884 7.4037 9.99995 7.4037C10.7211 7.4037 11.334 7.65613 11.8389 8.16099C12.3438 8.66585 12.5962 9.27884 12.5962 9.99995C12.5962 10.7211 12.3438 11.334 11.8389 11.8389C11.334 12.3438 10.7211 12.5962 9.99995 12.5962ZM9.99995 17.0833L12.0833 14.9999H14.9999V12.0833L17.0833 9.99995L14.9999 7.91661V4.99995H12.0833L9.99995 2.91661L7.91661 4.99995H4.99995V7.91661L2.91661 9.99995L4.99995 12.0833V14.9999H7.91661L9.99995 17.0833Z" fill="#1C1B1F"/>
</g>
</svg>
