<svg width="20" height="21" viewBox="0 0 20 21" fill="none" xmlns="http://www.w3.org/2000/svg">
<g mask="url(#mask0_9496_7127)">
<path d="M12.8943 14.2725L13.7727 13.3942L10.6252 10.2467V6.33333H9.37516V10.7531L12.8943 14.2725ZM10.0016 18.4167C8.90662 18.4167 7.87738 18.2089 6.91391 17.7933C5.95044 17.3778 5.11238 16.8138 4.39975 16.1015C3.68711 15.3891 3.12287 14.5514 2.70704 13.5883C2.29134 12.6253 2.0835 11.5963 2.0835 10.5015C2.0835 9.40645 2.29127 8.37722 2.70683 7.41374C3.12238 6.45027 3.68634 5.61222 4.3987 4.89958C5.11107 4.18694 5.94877 3.6227 6.91183 3.20687C7.87489 2.79118 8.90384 2.58333 9.9987 2.58333C11.0937 2.58333 12.1229 2.79111 13.0864 3.20666C14.0499 3.62222 14.8879 4.18618 15.6006 4.89854C16.3132 5.6109 16.8775 6.44861 17.2933 7.41166C17.709 8.37472 17.9168 9.40368 17.9168 10.4985C17.9168 11.5935 17.7091 12.6228 17.2935 13.5862C16.8779 14.5497 16.314 15.3878 15.6016 16.1004C14.8893 16.8131 14.0516 17.3773 13.0885 17.7931C12.1254 18.2088 11.0965 18.4167 10.0016 18.4167Z" fill="#3FE04E"/>
</g>
</svg>
