<svg width="16" height="17" viewBox="0 0 16 17" fill="none" xmlns="http://www.w3.org/2000/svg">
<path d="M14.0002 5.49996H11.7708L12.3135 3.32796C12.337 3.24228 12.3431 3.15276 12.3315 3.06467C12.3199 2.97659 12.2909 2.8917 12.246 2.81502C12.2011 2.73833 12.1414 2.67138 12.0703 2.61811C11.9992 2.56484 11.9181 2.52632 11.8319 2.50481C11.7457 2.48331 11.6561 2.47925 11.5683 2.49287C11.4805 2.5065 11.3963 2.53754 11.3207 2.58417C11.2451 2.6308 11.1795 2.69207 11.1279 2.76439C11.0763 2.83671 11.0397 2.91861 11.0202 3.00529L10.3962 5.49996H7.10416L7.64683 3.32796C7.67033 3.24228 7.67646 3.15276 7.66487 3.06467C7.65328 2.97659 7.62419 2.8917 7.57933 2.81502C7.53447 2.73833 7.47473 2.67138 7.40362 2.61811C7.33252 2.56484 7.25148 2.52632 7.16528 2.50481C7.07907 2.48331 6.98944 2.47925 6.90164 2.49287C6.81385 2.5065 6.72966 2.53754 6.65403 2.58417C6.5784 2.6308 6.51286 2.69207 6.46125 2.76439C6.40964 2.83671 6.373 2.91861 6.3535 3.00529L5.7295 5.49996H3.3335C3.15668 5.49996 2.98712 5.5702 2.86209 5.69522C2.73707 5.82025 2.66683 5.98982 2.66683 6.16663C2.66683 6.34344 2.73707 6.51301 2.86209 6.63803C2.98712 6.76306 3.15668 6.83329 3.3335 6.83329H5.39616L4.56283 10.1666H2.00016C1.82335 10.1666 1.65378 10.2369 1.52876 10.3619C1.40373 10.4869 1.3335 10.6565 1.3335 10.8333C1.3335 11.0101 1.40373 11.1797 1.52876 11.3047C1.65378 11.4297 1.82335 11.5 2.00016 11.5H4.2295L3.68683 13.672C3.64407 13.8434 3.67109 14.0247 3.76197 14.1762C3.85284 14.3277 4.00014 14.437 4.1715 14.48C4.2245 14.4931 4.27889 14.4998 4.3335 14.5C4.48209 14.4998 4.62636 14.4499 4.7434 14.3584C4.86044 14.2668 4.94354 14.1388 4.9795 13.9946L5.60416 11.5H8.89616L8.3535 13.672C8.31074 13.8434 8.33776 14.0247 8.42864 14.1762C8.51951 14.3277 8.6668 14.437 8.83816 14.48C8.89117 14.4931 8.94556 14.4998 9.00016 14.5C9.14876 14.4998 9.29303 14.4499 9.41007 14.3584C9.52711 14.2668 9.6102 14.1388 9.64616 13.9946L10.2702 11.5H12.6668C12.8436 11.5 13.0132 11.4297 13.1382 11.3047C13.2633 11.1797 13.3335 11.0101 13.3335 10.8333C13.3335 10.6565 13.2633 10.4869 13.1382 10.3619C13.0132 10.2369 12.8436 10.1666 12.6668 10.1666H10.6042L11.4375 6.83329H14.0002C14.177 6.83329 14.3465 6.76306 14.4716 6.63803C14.5966 6.51301 14.6668 6.34344 14.6668 6.16663C14.6668 5.98982 14.5966 5.82025 14.4716 5.69522C14.3465 5.5702 14.177 5.49996 14.0002 5.49996ZM9.2295 10.1666H5.9375L6.77083 6.83329H10.0628L9.2295 10.1666Z" fill="#FBBC05"/>
</svg>
