<svg width="57" height="58" viewBox="0 0 57 58" fill="none" xmlns="http://www.w3.org/2000/svg">
<path fill-rule="evenodd" clip-rule="evenodd" d="M24.9686 28.4005V19.3814C24.9686 18.7281 24.4353 18.1948 23.7821 18.1948H21.9297C21.2764 18.1948 20.7432 18.7282 20.7432 19.3814V28.4005C20.7432 29.0538 21.2765 29.587 21.9297 29.587H23.7821C24.4354 29.587 24.9686 29.0537 24.9686 28.4005Z" fill="#4BB3FD"/>
<path fill-rule="evenodd" clip-rule="evenodd" d="M24.9686 26.5607V19.3814C24.9686 18.7281 24.4353 18.1948 23.7821 18.1948H21.9297C21.2764 18.1948 20.7432 18.725 20.7432 19.3782V26.5608C20.7432 27.2141 21.2765 27.7473 21.9297 27.7473L23.7821 27.7442C24.4354 27.7442 24.9655 27.2141 24.9686 26.5608V26.5607Z" fill="#74C3FC"/>
<path fill-rule="evenodd" clip-rule="evenodd" d="M24.9688 19.4001V27.5451C24.9688 28.394 25.663 29.0882 26.5088 29.0882H31.861V29.0819H33.2779C34.0195 29.0819 34.6255 28.476 34.6255 27.7343C34.6255 26.9927 34.0195 26.3868 33.2779 26.3868H34.5118C35.2534 26.3868 35.8593 25.7809 35.8593 25.0393C35.8593 24.2978 35.2534 23.6918 34.5118 23.6918H34.9095C35.651 23.6918 36.257 23.086 36.257 22.3443C36.257 21.6026 35.651 20.9968 34.9095 20.9968C35.651 20.9968 36.257 20.3908 36.257 19.6493C36.257 18.9077 35.651 18.3017 34.9095 18.3017H32.6121C32.4417 18.3017 32.2934 18.2229 32.1987 18.0809C32.1009 17.9357 32.0883 17.7685 32.1545 17.6107C32.5679 16.6261 33.0034 15.6447 33.4137 14.6601C34.1301 12.9307 34.0069 11.7 33.0381 10.9648C32.1356 10.3337 31.4792 10.3715 31.0753 11.0816L29.7625 14.3067C29.5006 14.9473 29.0556 15.4112 28.4276 15.7016C27.4619 16.1434 24.9689 18.283 24.9689 19.4001H24.9688Z" fill="#F6B4A8"/>
<path fill-rule="evenodd" clip-rule="evenodd" d="M24.9688 19.4002V26.2041C24.9688 27.0529 25.663 27.7441 26.5088 27.7441H34.6253V27.7346C34.6253 26.9929 34.0194 26.3871 33.2778 26.3871H34.5117C35.2532 26.3871 35.8592 25.7811 35.8592 25.0396C35.8592 24.298 35.2532 23.6921 34.5117 23.6921H34.9093C35.6509 23.6921 36.2569 23.0862 36.2569 22.3445C36.2569 21.6029 35.6509 20.997 34.9093 20.997C35.6509 20.997 36.2569 20.3911 36.2569 19.6495C36.2569 18.9079 35.6509 18.302 34.9093 18.302H32.612C32.4415 18.302 32.2932 18.2232 32.1986 18.0811C32.1008 17.9359 32.0882 17.7687 32.1544 17.611C32.5678 16.6264 33.0033 15.6449 33.4135 14.6603C34.1299 12.931 34.0068 11.7002 33.038 10.965C32.1355 10.3339 31.4791 10.3718 31.0752 11.0818L29.7624 14.307C29.5005 14.9476 29.0555 15.4115 28.4275 15.7018C27.4618 16.1437 24.9688 18.2832 24.9688 19.4002Z" fill="#F9C9C0"/>
<path d="M34.5122 26.387H32.5303C32.161 26.387 31.8613 26.0872 31.8613 25.7179C31.8613 25.3486 32.1611 25.0521 32.5303 25.0521H35.8597C35.8533 25.7873 35.2506 26.3869 34.5122 26.3869V26.387ZM34.9098 23.692C35.6483 23.692 36.251 23.0924 36.2573 22.3571H32.9248C32.5556 22.3571 32.259 22.6538 32.259 23.023C32.259 23.3922 32.5557 23.692 32.9248 23.692H34.9098ZM34.9098 20.9969C35.6483 20.9969 36.251 20.3973 36.2573 19.6621H33.3225C32.9532 19.6621 32.6535 19.9588 32.6535 20.328C32.6535 20.6971 32.9533 20.997 33.3225 20.997L34.9098 20.9969Z" fill="#F6B4A8"/>
<path fill-rule="evenodd" clip-rule="evenodd" d="M35.2656 50.7084H55.8854V45.5171C55.8854 36.2834 35.2656 36.2834 35.2656 45.5171V50.7084Z" fill="#FF9B0D"/>
<path fill-rule="evenodd" clip-rule="evenodd" d="M35.2656 50.7085H51.6125V45.5173C51.6125 41.5442 47.7908 39.2814 43.4391 38.7292C39.0873 39.2814 35.2657 41.5442 35.2657 45.5173V50.7085H35.2656Z" fill="#FFB122"/>
<path fill-rule="evenodd" clip-rule="evenodd" d="M45.5756 39.6348C42.4419 39.578 40.3623 35.9899 40.3623 32.995C40.3623 26.4437 50.789 26.4437 50.789 32.995C50.789 35.9899 48.7094 39.578 45.5757 39.6348H45.5756Z" fill="#F6B4A8"/>
<path fill-rule="evenodd" clip-rule="evenodd" d="M44.0925 39.3287C41.8046 38.3914 40.3623 35.4881 40.3623 32.9951C40.3623 30.3474 42.0633 28.7696 44.0925 28.2615C46.1216 28.7696 47.8257 30.3474 47.8257 32.9951C47.8257 35.4882 46.3836 38.3914 44.0925 39.3287Z" fill="#F9C9C0"/>
<path fill-rule="evenodd" clip-rule="evenodd" d="M1.11426 50.7084H21.734V45.5171C21.734 36.2834 1.11426 36.2834 1.11426 45.5171V50.7084Z" fill="#F24C00"/>
<path fill-rule="evenodd" clip-rule="evenodd" d="M1.11426 50.7085H17.4579V45.5173C17.4579 41.5442 13.6362 39.2814 9.28451 38.7292C4.9327 39.2814 1.11426 41.5442 1.11426 45.5173V50.7085Z" fill="#FA5F17"/>
<path fill-rule="evenodd" clip-rule="evenodd" d="M11.4242 39.6348C8.29055 39.578 6.21094 35.9899 6.21094 32.995C6.21094 26.4437 16.6376 26.4437 16.6376 32.995C16.6376 35.9899 14.5546 39.578 11.4242 39.6348Z" fill="#F6B4A8"/>
<path fill-rule="evenodd" clip-rule="evenodd" d="M9.94098 39.3287C7.64985 38.3914 6.21094 35.4881 6.21094 32.9951C6.21094 30.3474 7.91192 28.7696 9.94098 28.2615C11.9702 28.7696 13.6743 30.3474 13.6743 32.9951C13.6743 35.4882 12.2321 38.3914 9.94098 39.3287Z" fill="#F9C9C0"/>
<path fill-rule="evenodd" clip-rule="evenodd" d="M18.1904 56.3858H38.8102V51.1977C38.8102 41.9608 18.1904 41.9608 18.1904 51.1977V56.3858Z" fill="#4BB3FD"/>
<path fill-rule="evenodd" clip-rule="evenodd" d="M18.1904 56.3856H34.5341V51.1975C34.5341 47.2212 30.7156 44.9585 26.3638 44.4062C22.0089 44.9585 18.1904 47.2212 18.1904 51.1975V56.3856Z" fill="#74C3FC"/>
<path fill-rule="evenodd" clip-rule="evenodd" d="M28.5004 45.312C25.3667 45.2552 23.2871 41.6671 23.2871 38.6723C23.2871 32.121 33.7138 32.121 33.7138 38.6723C33.7138 41.6671 31.6342 45.2552 28.5005 45.312H28.5004Z" fill="#F6B4A8"/>
<path fill-rule="evenodd" clip-rule="evenodd" d="M27.0172 45.0059C24.7293 44.0686 23.2871 41.1653 23.2871 38.6723C23.2871 36.0246 24.9881 34.4499 27.0172 33.9419C29.0463 34.45 30.7504 36.0247 30.7504 38.6723C30.7504 41.1654 29.3083 44.0686 27.0172 45.0059Z" fill="#F9C9C0"/>
<path fill-rule="evenodd" clip-rule="evenodd" d="M10.7552 1.61426C16.0821 1.61426 20.3992 5.93134 20.3992 11.2583C20.3992 15.7741 17.2939 19.5674 13.0967 20.6151L10.7552 24.6702L8.41671 20.6151C4.21953 19.5674 1.11426 15.7741 1.11426 11.2583C1.11426 5.93134 5.43134 1.61426 10.7552 1.61426Z" fill="#E1DAE7"/>
<path fill-rule="evenodd" clip-rule="evenodd" d="M8.42306 20.6309L8.41671 20.6151C4.21953 19.5674 1.11426 15.7741 1.11426 11.2583C1.11426 6.31325 4.83184 2.2392 9.62852 1.68066C13.8446 2.70945 16.9783 6.51208 16.9783 11.0469C16.9783 16.0046 13.2356 20.0882 8.42306 20.6309Z" fill="#EBE6EF"/>
<path fill-rule="evenodd" clip-rule="evenodd" d="M46.2417 1.61426C51.5686 1.61426 55.8857 5.93134 55.8857 11.2583C55.8857 15.7741 52.7773 19.5674 48.5832 20.6151L46.2417 24.6702L43.9001 20.6151C39.7062 19.5674 36.5977 15.7741 36.5977 11.2583C36.5977 5.93134 40.9179 1.61426 46.2417 1.61426Z" fill="#E1DAE7"/>
<path d="M7.06936 8.20665C6.70009 8.20665 6.40039 7.90684 6.40039 7.53768C6.40039 7.17152 6.7002 6.87183 7.06936 6.87183H14.4444C14.8137 6.87183 15.1134 7.17163 15.1134 7.53768C15.1134 7.90684 14.8136 8.20665 14.4444 8.20665H7.06936ZM7.06936 15.6416C6.70009 15.6416 6.40039 15.3449 6.40039 14.9757C6.40039 14.6066 6.7002 14.3067 7.06936 14.3067H14.4444C14.8137 14.3067 15.1134 14.6065 15.1134 14.9757C15.1134 15.345 14.8136 15.6416 14.4444 15.6416H7.06936ZM7.06936 11.9241C6.70009 11.9241 6.40039 11.6274 6.40039 11.2583C6.40039 10.8891 6.7002 10.5892 7.06936 10.5892H14.4444C14.8137 10.5892 15.1134 10.889 15.1134 11.2583C15.1134 11.6275 14.8136 11.9241 14.4444 11.9241H7.06936Z" fill="#9992A3"/>
<path fill-rule="evenodd" clip-rule="evenodd" d="M43.9096 20.6308L43.9001 20.615C39.7062 19.5673 36.5977 15.774 36.5977 11.2582C36.5977 6.31312 40.3182 2.23906 45.1119 1.68042C49.3311 2.7092 52.4617 6.51184 52.4617 11.0467C52.4617 16.0043 48.7221 20.0881 43.9096 20.6308Z" fill="#EBE6EF"/>
<path d="M46.2419 8.69271C46.933 7.31368 47.6209 6.62256 49 6.62256C50.5242 6.62256 51.7582 7.85964 51.7582 9.38071C51.7582 12.1389 49 14.8969 46.2419 17.6551C43.4837 14.8969 40.7256 12.1389 40.7256 9.38071C40.7256 7.85964 41.9627 6.62256 43.4837 6.62256C44.8628 6.62256 45.5539 7.31368 46.2419 8.69271Z" fill="#FA5F17"/>
</svg>
