<svg width="81" height="80" viewBox="0 0 81 80" fill="none" xmlns="http://www.w3.org/2000/svg">
<path d="M57.0968 69.6425H23.9043C22.413 69.6409 20.9832 69.0477 19.9286 67.9932C18.8741 66.9386 18.281 65.5089 18.2793 64.0175V39.955C18.2793 38.4632 18.8719 37.0324 19.9268 35.9775C20.9817 34.9226 22.4125 34.33 23.9043 34.33H57.0968C58.5886 34.33 60.0194 34.9226 61.0743 35.9775C62.1292 37.0324 62.7218 38.4632 62.7218 39.955V64.0175C62.7201 65.5089 62.127 66.9386 61.0724 67.9932C60.0179 69.0477 58.5881 69.6409 57.0968 69.6425ZM23.9043 35.58C22.744 35.58 21.6312 36.041 20.8107 36.8614C19.9902 37.6819 19.5293 38.7947 19.5293 39.955V64.0175C19.5293 65.1778 19.9902 66.2906 20.8107 67.1111C21.6312 67.9316 22.744 68.3925 23.9043 68.3925H57.0968C58.2571 68.3925 59.3699 67.9316 60.1904 67.1111C61.0109 66.2906 61.4718 65.1778 61.4718 64.0175V39.955C61.4718 38.7947 61.0109 37.6819 60.1904 36.8614C59.3699 36.041 58.2571 35.58 57.0968 35.58H23.9043Z" fill="#AAAAAA"/>
<path d="M55.333 35.58C55.1672 35.58 55.0082 35.5142 54.891 35.397C54.7738 35.2797 54.708 35.1208 54.708 34.955V25.8138C54.708 22.0457 53.2111 18.432 50.5467 15.7675C47.8823 13.1031 44.2685 11.6063 40.5005 11.6063C36.7324 11.6063 33.1187 13.1031 30.4542 15.7675C27.7898 18.432 26.293 22.0457 26.293 25.8138V34.955C26.293 35.1208 26.2271 35.2797 26.1099 35.397C25.9927 35.5142 25.8337 35.58 25.668 35.58C25.5022 35.58 25.3432 35.5142 25.226 35.397C25.1088 35.2797 25.043 35.1208 25.043 34.955V25.8138C25.043 21.7142 26.6715 17.7825 29.5704 14.8837C32.4692 11.9848 36.4009 10.3563 40.5005 10.3563C44.6001 10.3563 48.5317 11.9848 51.4306 14.8837C54.3294 17.7825 55.958 21.7142 55.958 25.8138V34.955C55.958 35.1208 55.8921 35.2797 55.7749 35.397C55.6577 35.5142 55.4987 35.58 55.333 35.58Z" fill="#AAAAAA"/>
<path d="M51.0645 35.58C50.8987 35.58 50.7397 35.5141 50.6225 35.3969C50.5053 35.2797 50.4395 35.1208 50.4395 34.955V25.6312C50.3812 23.0342 49.3086 20.5632 47.4513 18.7471C45.594 16.931 43.0996 15.9142 40.502 15.9142C37.9043 15.9142 35.4099 16.931 33.5526 18.7471C31.6953 20.5632 30.6227 23.0342 30.5645 25.6312V34.955C30.5645 35.1208 30.4986 35.2797 30.3814 35.3969C30.2642 35.5141 30.1052 35.58 29.9395 35.58C29.7737 35.58 29.6147 35.5141 29.4975 35.3969C29.3803 35.2797 29.3145 35.1208 29.3145 34.955V25.6312C29.3763 22.7051 30.5822 19.9196 32.6735 17.8721C34.7648 15.8245 37.5751 14.6778 40.502 14.6778C43.4288 14.6778 46.2391 15.8245 48.3304 17.8721C50.4217 19.9196 51.6276 22.7051 51.6895 25.6312V34.955C51.6895 35.1208 51.6236 35.2797 51.5064 35.3969C51.3892 35.5141 51.2302 35.58 51.0645 35.58Z" fill="#AAAAAA"/>
<path d="M44.4625 60.6025H36.5387C36.4437 60.6025 36.3499 60.5809 36.2644 60.5391C36.179 60.4974 36.1042 60.4368 36.0457 60.3618C35.9873 60.2868 35.9467 60.1995 35.9271 60.1065C35.9074 60.0135 35.9093 59.9172 35.9325 59.825L37.9412 51.8175C37.1138 51.2679 36.4852 50.4666 36.1486 49.532C35.812 48.5975 35.7853 47.5794 36.0723 46.6284C36.3593 45.6774 36.9449 44.8442 37.7423 44.2519C38.5397 43.6596 39.5067 43.3398 40.5 43.3398C41.4933 43.3398 42.4603 43.6596 43.2577 44.2519C44.0551 44.8442 44.6407 45.6774 44.9277 46.6284C45.2147 47.5794 45.188 48.5975 44.8514 49.532C44.5148 50.4666 43.8862 51.2679 43.0588 51.8175L45.0687 59.825C45.0919 59.9172 45.0938 60.0135 45.0742 60.1065C45.0546 60.1995 45.014 60.2868 44.9555 60.3618C44.8971 60.4368 44.8223 60.4974 44.7368 60.5391C44.6514 60.5809 44.5576 60.6025 44.4625 60.6025ZM37.3375 59.3525H43.6588L41.73 51.6713C41.6955 51.5348 41.7081 51.3907 41.7658 51.2623C41.8234 51.1339 41.9226 51.0287 42.0475 50.9638C42.7194 50.6164 43.2551 50.0534 43.5687 49.3651C43.8823 48.6768 43.9557 47.9031 43.7769 47.1681C43.5982 46.4332 43.1777 45.7796 42.583 45.3122C41.9883 44.8448 41.2539 44.5907 40.4975 44.5907C39.7411 44.5907 39.0067 44.8448 38.412 45.3122C37.8173 45.7796 37.3968 46.4332 37.2181 47.1681C37.0393 47.9031 37.1127 48.6768 37.4263 49.3651C37.7399 50.0534 38.2756 50.6164 38.9475 50.9638C39.0723 51.0287 39.1716 51.1339 39.2292 51.2623C39.2869 51.3907 39.2995 51.5348 39.265 51.6713L37.3375 59.3525Z" fill="#AAAAAA"/>
</svg>
